_Griffith_Gothic-Bold_Italic_WebTT.ufo
<glyph name="exclam" format="1">
  <advance width="534.528"/>
  <unicode hex="0021"/>
  <outline>
    <contour>
      <point x="168" y="254" type="qcurve" smooth="yes"/>
      <point x="224.71641791" y="254.0"/>
      <point x="301.0" y="177.208955224"/>
      <point x="301" y="119" type="qcurve" smooth="yes"/>
      <point x="301.0" y="62.2835820896"/>
      <point x="224.71641791" y="-14.0"/>
      <point x="168" y="-14" type="qcurve" smooth="yes"/>
      <point x="109.791044776" y="-14.0"/>
      <point x="33.0" y="62.2835820896"/>
      <point x="33" y="119" type="qcurve" smooth="yes"/>
      <point x="33.0" y="177.208955224"/>
      <point x="109.791044776" y="254.0"/>
    </contour>
    <contour>
      <point x="369" y="1475" type="line"/>
      <point x="637" y="1475" type="line"/>
      <point x="305" y="453" type="line"/>
      <point x="182" y="453" type="line"/>
    </contour>
  </outline>
</glyph>
<glyph name="dollar" format="1">
  <advance width="1161.216"/>
  <unicode hex="0024"/>
  <outline>
    <contour>
      <point x="881" y="1460" type="line"/>
      <point x="980.253731343" y="1439.10447761"/>
      <point x="1141.82089552" y="1336.62686567"/>
      <point x="1206" y="1262" type="qcurve"/>
      <point x="1081" y="1135" type="line"/>
      <point x="1031.0" y="1199.17910448"/>
      <point x="906.373134328" y="1288.34328358"/>
      <point x="831" y="1307" type="qcurve"/>
      <point x="711" y="823" type="line"/>
      <point x="892.343283582" y="736.432835821"/>
      <point x="1053.0" y="555.343283582"/>
      <point x="1053" y="424" type="qcurve" smooth="yes"/>
      <point x="1053.0" y="232.955223881"/>
      <point x="766.104477612" y="0.0"/>
      <point x="537" y="0" type="qcurve" smooth="yes"/>
      <point x="518" y="0" type="line"/>
      <point x="469" y="-195" type="line"/>
      <point x="338" y="-195" type="line"/>
      <point x="391" y="12" type="line"/>
      <point x="264.134328358" y="38.1194029851"/>
      <point x="63.671641791" y="162.179104478"/>
      <point x="-2" y="248" type="qcurve"/>
      <point x="125" y="375" type="line"/>
      <point x="189.179104478" y="290.671641791"/>
      <point x="338.746268657" y="181.910447761"/>
      <point x="438" y="164" type="qcurve"/>
      <point x="573" y="698" type="line"/>
      <point x="420.76119403" y="771.880597015"/>
      <point x="252.0" y="937.179104478"/>
      <point x="252" y="1073" type="qcurve" smooth="yes"/>
      <point x="252.0" y="1259.56716418"/>
      <point x="529.0" y="1475.0"/>
      <point x="729" y="1475" type="qcurve" smooth="yes"/>
      <point x="752" y="1475" type="line"/>
      <point x="774" y="1561" type="line"/>
      <point x="905" y="1561" type="line"/>
    </contour>
    <contour>
      <point x="549" y="154" type="line" smooth="yes"/>
      <point x="703.47761194" y="154.0"/>
      <point x="856.0" y="299.044776119"/>
      <point x="856" y="408" type="qcurve" smooth="yes"/>
      <point x="856.0" y="481.134328358"/>
      <point x="770.23880597" y="594.28358209"/>
      <point x="668" y="651" type="qcurve"/>
      <point x="545" y="154" type="line"/>
    </contour>
    <contour>
      <point x="616" y="870" type="qcurve"/>
      <point x="729" y="1321" type="line"/>
      <point x="721" y="1321" type="line" smooth="yes"/>
      <point x="594.134328358" y="1321.0"/>
      <point x="449.0" y="1196.71641791"/>
      <point x="449" y="1090" type="qcurve" smooth="yes"/>
      <point x="449.0" y="1020.59701493"/>
      <point x="524.955223881" y="920.746268657"/>
    </contour>
  </outline>
</glyph>
<glyph name="ampersand" format="1">
  <advance width="1419.264"/>
  <unicode hex="0026"/>
  <outline>
    <contour>
      <point x="1243" y="834" type="qcurve"/>
      <point x="1395" y="754" type="line"/>
      <point x="1304.70149254" y="612.955223881"/>
      <point x="1109.25373134" y="362.776119403"/>
      <point x="1010" y="268" type="qcurve"/>
      <point x="1061.49253731" y="190.388059701"/>
      <point x="1150.80597015" y="150.0"/>
      <point x="1212" y="150" type="qcurve" smooth="yes"/>
      <point x="1239.6119403" y="150.0"/>
      <point x="1283.89552239" y="156.029850746"/>
      <point x="1313" y="162" type="qcurve"/>
      <point x="1270" y="-2" type="line"/>
      <point x="1237.91044776" y="-7.97014925373"/>
      <point x="1187.08955224" y="-12.0"/>
      <point x="1155" y="-12" type="qcurve" smooth="yes"/>
      <point x="1054.25373134" y="-12.0"/>
      <point x="918.686567164" y="53.447761194"/>
      <point x="856" y="143" type="qcurve"/>
      <point x="746.298507463" y="63.8955223881"/>
      <point x="539.402985075" y="-20.0"/>
      <point x="420" y="-20" type="qcurve" smooth="yes"/>
      <point x="246.865671642" y="-20.0"/>
      <point x="31.0" y="161.343283582"/>
      <point x="31" y="330" type="qcurve" smooth="yes"/>
      <point x="31.0" y="502.388059701"/>
      <point x="263.164179104" y="773.223880597"/>
      <point x="496" y="868" type="qcurve"/>
      <point x="471.373134328" y="937.402985075"/>
      <point x="449.0" y="1050.80597015"/>
      <point x="449" y="1112" type="qcurve" smooth="yes"/>
      <point x="449.0" y="1273.94029851"/>
      <point x="669.343283582" y="1499.0"/>
      <point x="838" y="1499" type="qcurve" smooth="yes"/>
      <point x="979.791044776" y="1499.0"/>
      <point x="1128.0" y="1355.92537313"/>
      <point x="1128" y="1241" type="qcurve" smooth="yes"/>
      <point x="1128.0" y="1105.17910448"/>
      <point x="917.537313433" y="902.373134328"/>
      <point x="725" y="827" type="qcurve"/>
      <point x="783.208955224" y="685.208955224"/>
      <point x="876.746268657" y="484.820895522"/>
      <point x="926" y="399" type="qcurve"/>
      <point x="1009.58208955" y="486.313432836"/>
      <point x="1171.35820896" y="713.104477612"/>
    </contour>
    <contour>
      <point x="489" y="139" type="qcurve" smooth="yes"/>
      <point x="561.388059701" y="139.0"/>
      <point x="705.850746269" y="203.791044776"/>
      <point x="776" y="262" type="qcurve"/>
      <point x="719.28358209" y="359.76119403"/>
      <point x="612.671641791" y="590.537313433"/>
      <point x="547" y="748" type="qcurve"/>
      <point x="394.014925373" y="680.089552239"/>
      <point x="250.0" y="483.686567164"/>
      <point x="250" y="371" type="qcurve" smooth="yes"/>
      <point x="250.0" y="263.537313433"/>
      <point x="379.298507463" y="139.0"/>
    </contour>
    <contour>
      <point x="670" y="934" type="qcurve"/>
      <point x="817.76119403" y="993.701492537"/>
      <point x="954.0" y="1132.73134328"/>
      <point x="954" y="1229" type="qcurve" smooth="yes"/>
      <point x="954.0" y="1290.19402985"/>
      <point x="888.194029851" y="1366.0"/>
      <point x="827" y="1366" type="qcurve" smooth="yes"/>
      <point x="738.940298507" y="1366.0"/>
      <point x="637.0" y="1225.53731343"/>
      <point x="637" y="1133" type="qcurve" smooth="yes"/>
      <point x="637.0" y="1080.76119403"/>
      <point x="651.343283582" y="986.23880597"/>
    </contour>
  </outline>
</glyph>
<glyph name="parenleft" format="1">
  <advance width="702.464"/>
  <unicode hex="0028"/>
  <outline>
    <contour>
      <point x="694" y="1505" type="qcurve"/>
      <point x="905" y="1505" type="line"/>
      <point x="610.223880597" y="1265.44776119"/>
      <point x="334.0" y="708.298507463"/>
      <point x="334" y="418" type="qcurve" smooth="yes"/>
      <point x="334.0" y="240.388059701"/>
      <point x="400.373134328" y="-40.5223880597"/>
      <point x="475" y="-195" type="qcurve"/>
      <point x="297" y="-195" type="line"/>
      <point x="215.656716418" y="-68.1343283582"/>
      <point x="104.0" y="255.671641791"/>
      <point x="104" y="440" type="qcurve" smooth="yes"/>
      <point x="104.0" y="759.402985075"/>
      <point x="425.343283582" y="1310.97014925"/>
    </contour>
  </outline>
</glyph>
<glyph name="plus" format="1">
  <advance width="1228.8"/>
  <unicode hex="002B"/>
  <outline>
    <contour>
      <point x="1192" y="821" type="line"/>
      <point x="1192" y="633" type="line"/>
      <point x="758" y="633" type="line"/>
      <point x="758" y="199" type="line"/>
      <point x="567" y="199" type="line"/>
      <point x="567" y="633" type="line"/>
      <point x="133" y="633" type="line"/>
      <point x="133" y="821" type="line"/>
      <point x="567" y="821" type="line"/>
      <point x="567" y="1255" type="line"/>
      <point x="758" y="1255" type="line"/>
      <point x="758" y="821" type="line"/>
    </contour>
  </outline>
</glyph>
<glyph name="hyphen" format="1">
  <advance width="661.504"/>
  <unicode hex="002D"/>
  <unicode hex="2010"/>
  <unicode hex="2011"/>
  <outline>
    <contour>
      <point x="109" y="680" type="line"/>
      <point x="623" y="680" type="line"/>
      <point x="573" y="485" type="line"/>
      <point x="59" y="485" type="line"/>
    </contour>
  </outline>
</glyph>
<glyph name="zero" format="1">
  <advance width="1236.992"/>
  <unicode hex="0030"/>
  <outline>
    <contour>
      <point x="1225" y="1020" type="qcurve" smooth="yes"/>
      <point x="1225" y="1012" type="line" smooth="yes"/>
      <point x="1225.0" y="939.611940299"/>
      <point x="1202.92537313" y="767.402985075"/>
      <point x="1188" y="698" type="qcurve" smooth="yes"/>
      <point x="1109.64179104" y="359.194029851"/>
      <point x="764.805970149" y="-25.0"/>
      <point x="526" y="-25" type="qcurve" smooth="yes"/>
      <point x="331.970149254" y="-25.0"/>
      <point x="111.0" y="233.358208955"/>
      <point x="111" y="455" type="qcurve" smooth="yes"/>
      <point x="111" y="463" type="line" smooth="yes"/>
      <point x="111.0" y="534.641791045"/>
      <point x="130.074626866" y="707.343283582"/>
      <point x="145" y="776" type="qcurve" smooth="yes"/>
      <point x="223.358208955" y="1115.55223881"/>
      <point x="570.194029851" y="1499.0"/>
      <point x="809" y="1499" type="qcurve" smooth="yes"/>
      <point x="1003.02985075" y="1499.0"/>
      <point x="1225.0" y="1241.64179104"/>
    </contour>
    <contour>
      <point x="942" y="662" type="qcurve" smooth="yes"/>
      <point x="969.611940299" y="759.76119403"/>
      <point x="995.0" y="947.373134328"/>
      <point x="995" y="1022" type="qcurve" smooth="yes"/>
      <point x="995" y="1026" type="line" smooth="yes"/>
      <point x="995.0" y="1157.34328358"/>
      <point x="895.462686567" y="1319.0"/>
      <point x="788" y="1319" type="qcurve" smooth="yes"/>
      <point x="659.641791045" y="1319.0"/>
      <point x="457.179104478" y="1046.58208955"/>
      <point x="393" y="813" type="qcurve" smooth="yes"/>
      <point x="366.880597015" y="715.23880597"/>
      <point x="340.0" y="527.626865672"/>
      <point x="340" y="453" type="qcurve" smooth="yes"/>
      <point x="340" y="449" type="line" smooth="yes"/>
      <point x="340.0" y="316.910447761"/>
      <point x="439.029850746" y="156.0"/>
      <point x="545" y="156" type="qcurve" smooth="yes"/>
      <point x="673.358208955" y="156.0"/>
      <point x="877.820895522" y="427.671641791"/>
    </contour>
  </outline>
</glyph>
<glyph name="two" format="1">
  <advance width="1138.688"/>
  <unicode hex="0032"/>
  <outline>
    <contour>
      <point x="772" y="1499" type="qcurve" smooth="yes"/>
      <point x="955.582089552" y="1499.0"/>
      <point x="1161.0" y="1305.47761194"/>
      <point x="1161" y="1151" type="qcurve" smooth="yes"/>
      <point x="1161.0" y="968.910447761"/>
      <point x="928.328358209" y="710.835820896"/>
      <point x="694" y="578" type="qcurve" smooth="yes"/>
      <point x="515.641791045" y="475.014925373"/>
      <point x="302.0" y="278.208955224"/>
      <point x="252" y="170" type="qcurve"/>
      <point x="958" y="170" type="line"/>
      <point x="918" y="0" type="line"/>
      <point x="-25" y="0" type="line"/>
      <point x="8" y="143" type="line"/>
      <point x="92.328358209" y="311.656716418"/>
      <point x="360.358208955" y="579.149253731"/>
      <point x="582" y="709" type="qcurve" smooth="yes"/>
      <point x="761.850746269" y="814.223880597"/>
      <point x="938.0" y="1005.37313433"/>
      <point x="938" y="1130" type="qcurve" smooth="yes"/>
      <point x="938.0" y="1215.82089552"/>
      <point x="836.253731343" y="1327.0"/>
      <point x="737" y="1327" type="qcurve" smooth="yes"/>
      <point x="645.208955224" y="1327.0"/>
      <point x="476.791044776" y="1210.65671642"/>
      <point x="385" y="1092" type="qcurve"/>
      <point x="223" y="1192" type="line"/>
      <point x="337.925373134" y="1340.50746269"/>
      <point x="599.611940299" y="1499.0"/>
    </contour>
  </outline>
</glyph>
<glyph name="three" format="1">
  <advance width="1083.392"/>
  <unicode hex="0033"/>
  <outline>
    <contour>
      <point x="731" y="1499" type="qcurve" smooth="yes"/>
      <point x="898.910447761" y="1499.0"/>
      <point x="1085.0" y="1343.58208955"/>
      <point x="1085" y="1210" type="qcurve" smooth="yes"/>
      <point x="1085.0" y="1071.19402985"/>
      <point x="877.492537313" y="887.656716418"/>
      <point x="676" y="819" type="qcurve"/>
      <point x="680" y="811" type="line"/>
      <point x="828.507462687" y="805.029850746"/>
      <point x="1014.0" y="664.507462687"/>
      <point x="1014" y="516" type="qcurve" smooth="yes"/>
      <point x="1014.0" y="276.447761194"/>
      <point x="505.119402985" y="-10.0"/>
      <point x="129" y="-10" type="qcurve" smooth="yes"/>
      <point x="72.2835820896" y="-10.0"/>
      <point x="-29.2835820896" y="-3.97014925373"/>
      <point x="-86" y="2" type="qcurve"/>
      <point x="-53" y="164" type="line"/>
      <point x="-5.98507462687" y="161.014925373"/>
      <point x="67.2388059701" y="156.0"/>
      <point x="115" y="156" type="qcurve" smooth="yes"/>
      <point x="403.805970149" y="156.0"/>
      <point x="782.0" y="345.582089552"/>
      <point x="782" y="512" type="qcurve" smooth="yes"/>
      <point x="782.0" y="614.23880597"/>
      <point x="652.731343284" y="707.0"/>
      <point x="549" y="707" type="qcurve" smooth="yes"/>
      <point x="510.940298507" y="707.0"/>
      <point x="432.044776119" y="697.462686567"/>
      <point x="391" y="690" type="qcurve"/>
      <point x="371" y="831" type="line"/>
      <point x="661.298507463" y="910.850746269"/>
      <point x="860.0" y="1073.52238806"/>
      <point x="860" y="1178" type="qcurve" smooth="yes"/>
      <point x="860.0" y="1249.64179104"/>
      <point x="770.328358209" y="1331.0"/>
      <point x="686" y="1331" type="qcurve" smooth="yes"/>
      <point x="600.179104478" y="1331.0"/>
      <point x="428.776119403" y="1259.64179104"/>
      <point x="334" y="1188" type="qcurve"/>
      <point x="240" y="1309" type="line"/>
      <point x="355.671641791" y="1399.29850746"/>
      <point x="598.164179104" y="1499.0"/>
    </contour>
  </outline>
</glyph>
<glyph name="five" format="1">
  <advance width="1128.448"/>
  <unicode hex="0035"/>
  <outline>
    <contour>
      <point x="408" y="1475" type="line"/>
      <point x="1169" y="1475" type="line"/>
      <point x="1130" y="1292" type="line"/>
      <point x="522" y="1292" type="line"/>
      <point x="375" y="827" type="line"/>
      <point x="391" y="827" type="line"/>
      <point x="461.149253731" y="888.194029851"/>
      <point x="603.223880597" y="956.0"/>
      <point x="698" y="956" type="qcurve" smooth="yes"/>
      <point x="859.940298507" y="956.0"/>
      <point x="1057.0" y="758.358208955"/>
      <point x="1057" y="580" type="qcurve" smooth="yes"/>
      <point x="1057" y="573" type="line" smooth="yes"/>
      <point x="1057.0" y="307.328358209"/>
      <point x="708.865671642" y="-20.0"/>
      <point x="432" y="-20" type="qcurve" smooth="yes"/>
      <point x="287.223880597" y="-20.0"/>
      <point x="61.2089552239" y="46.3134328358"/>
      <point x="-47" y="109" type="qcurve"/>
      <point x="49" y="270" type="line"/>
      <point x="139.298507463" y="215.52238806"/>
      <point x="327.76119403" y="156.0"/>
      <point x="430" y="156" type="qcurve" smooth="yes"/>
      <point x="603.134328358" y="156.0"/>
      <point x="825.0" y="376.850746269"/>
      <point x="825" y="547" type="qcurve" smooth="yes"/>
      <point x="825" y="551" type="line" smooth="yes"/>
      <point x="825.0" y="671.895522388"/>
      <point x="704.776119403" y="791.0"/>
      <point x="610" y="791" type="qcurve" smooth="yes"/>
      <point x="530.895522388" y="791.0"/>
      <point x="417.164179104" y="729.731343284"/>
      <point x="350" y="676" type="qcurve"/>
      <point x="166" y="676" type="line"/>
    </contour>
  </outline>
</glyph>
<glyph name="eight" format="1">
  <advance width="1208.32"/>
  <unicode hex="0038"/>
  <outline>
    <contour>
      <point x="762" y="1499" type="qcurve" smooth="yes"/>
      <point x="970.955223881" y="1499.0"/>
      <point x="1212.0" y="1307.44776119"/>
      <point x="1212" y="1147" type="qcurve" smooth="yes"/>
      <point x="1212.0" y="998.492537313"/>
      <point x="1012.40298507" y="805.582089552"/>
      <point x="893" y="772" type="qcurve"/>
      <point x="889" y="760" type="line"/>
      <point x="980.791044776" y="718.955223881"/>
      <point x="1108.0" y="558.895522388"/>
      <point x="1108" y="438" type="qcurve" smooth="yes"/>
      <point x="1108.0" y="242.47761194"/>
      <point x="795.268656716" y="-23.0"/>
      <point x="549" y="-23" type="qcurve" smooth="yes"/>
      <point x="322.880597015" y="-23.0"/>
      <point x="61.0" y="190.373134328"/>
      <point x="61" y="365" type="qcurve" smooth="yes"/>
      <point x="61.0" y="538.880597015"/>
      <point x="288.746268657" y="763.447761194"/>
      <point x="438" y="803" type="qcurve"/>
      <point x="440" y="815" type="line"/>
      <point x="354.925373134" y="865.746268657"/>
      <point x="262.0" y="1001.25373134"/>
      <point x="262" y="1102" type="qcurve" smooth="yes"/>
      <point x="262.0" y="1266.92537313"/>
      <point x="541.850746269" y="1499.0"/>
    </contour>
    <contour>
      <point x="559" y="135" type="qcurve" smooth="yes"/>
      <point x="704.52238806" y="135.0"/>
      <point x="889.0" y="323.656716418"/>
      <point x="889" y="455" type="qcurve" smooth="yes"/>
      <point x="889.0" y="567.686567164"/>
      <point x="740.388059701" y="715.0"/>
      <point x="618" y="715" type="qcurve" smooth="yes"/>
      <point x="479.194029851" y="715.0"/>
      <point x="285.0" y="519.358208955"/>
      <point x="285" y="391" type="qcurve" smooth="yes"/>
      <point x="285.0" y="276.820895522"/>
      <point x="427.656716418" y="135.0"/>
    </contour>
    <contour>
      <point x="707" y="848" type="qcurve" smooth="yes"/>
      <point x="833.865671642" y="848.0"/>
      <point x="989.0" y="1024.7761194"/>
      <point x="989" y="1130" type="qcurve" smooth="yes"/>
      <point x="989.0" y="1227.01492537"/>
      <point x="865.194029851" y="1341.0"/>
      <point x="754" y="1341" type="qcurve" smooth="yes"/>
      <point x="628.626865672" y="1341.0"/>
      <point x="477.0" y="1182.46268657"/>
      <point x="477" y="1075" type="qcurve" smooth="yes"/>
      <point x="477.0" y="971.268656716"/>
      <point x="607.0" y="848.0"/>
    </contour>
  </outline>
</glyph>
<glyph name="nine" format="1">
  <advance width="1175.552"/>
  <unicode hex="0039"/>
  <outline>
    <contour>
      <point x="748" y="1499" type="qcurve" smooth="yes"/>
      <point x="946.507462687" y="1499.0"/>
      <point x="1194.0" y="1286.70149254"/>
      <point x="1194" y="1077" type="qcurve" smooth="yes"/>
      <point x="1194.0" y="753.119402985"/>
      <point x="767.746268657" y="192.537313433"/>
      <point x="467" y="0" type="qcurve"/>
      <point x="143" y="0" type="line"/>
      <point x="430.313432836" y="160.447761194"/>
      <point x="834.880597015" y="535.044776119"/>
      <point x="911" y="694" type="qcurve"/>
      <point x="897" y="694" type="line"/>
      <point x="812.671641791" y="617.880597015"/>
      <point x="635.462686567" y="539.0"/>
      <point x="528" y="539" type="qcurve" smooth="yes"/>
      <point x="364.567164179" y="539.0"/>
      <point x="158.0" y="729.940298507"/>
      <point x="158" y="918" type="qcurve" smooth="yes"/>
      <point x="158.0" y="1153.07462687"/>
      <point x="500.23880597" y="1499.0"/>
    </contour>
    <contour>
      <point x="623" y="696" type="qcurve" smooth="yes"/>
      <point x="764.791044776" y="696.0"/>
      <point x="979.0" y="922.835820896"/>
      <point x="979" y="1090" type="qcurve" smooth="yes"/>
      <point x="979.0" y="1204.17910448"/>
      <point x="846.940298507" y="1339.0"/>
      <point x="735" y="1339" type="qcurve" smooth="yes"/>
      <point x="591.71641791" y="1339.0"/>
      <point x="385.0" y="1104.95522388"/>
      <point x="385" y="946" type="qcurve" smooth="yes"/>
      <point x="385.0" y="826.597014925"/>
      <point x="509.567164179" y="696.0"/>
    </contour>
  </outline>
</glyph>
<glyph name="less" format="1">
  <advance width="1228.8"/>
  <unicode hex="003C"/>
  <outline>
    <contour>
      <point x="1171" y="381" type="line"/>
      <point x="1171" y="182" type="line"/>
      <point x="139" y="635" type="line"/>
      <point x="139" y="819" type="line"/>
      <point x="1171" y="1272" type="line"/>
      <point x="1171" y="1073" type="line"/>
      <point x="354" y="727" type="line"/>
    </contour>
  </outline>
</glyph>
<glyph name="equal" format="1">
  <advance width="1228.8"/>
  <unicode hex="003D"/>
  <outline>
    <contour>
      <point x="1159" y="569" type="line"/>
      <point x="1159" y="377" type="line"/>
      <point x="164" y="377" type="line"/>
      <point x="164" y="569" type="line"/>
    </contour>
    <contour>
      <point x="1159" y="1077" type="line"/>
      <point x="1159" y="885" type="line"/>
      <point x="164" y="885" type="line"/>
      <point x="164" y="1077" type="line"/>
    </contour>
  </outline>
</glyph>
<glyph name="greater" format="1">
  <advance width="1228.8"/>
  <unicode hex="003E"/>
  <outline>
    <contour>
      <point x="1186" y="819" type="line"/>
      <point x="1186" y="635" type="line"/>
      <point x="154" y="182" type="line"/>
      <point x="154" y="381" type="line"/>
      <point x="971" y="727" type="line"/>
      <point x="154" y="1073" type="line"/>
      <point x="154" y="1272" type="line"/>
    </contour>
  </outline>
</glyph>
<glyph name="A" format="1">
  <advance width="1376.256"/>
  <unicode hex="0041"/>
  <outline>
    <contour>
      <point x="1079" y="1481" type="line"/>
      <point x="1198" y="0" type="line"/>
      <point x="967" y="0" type="line"/>
      <point x="944" y="365" type="line"/>
      <point x="354" y="365" type="line"/>
      <point x="152" y="0" type="line"/>
      <point x="-88" y="0" type="line"/>
      <point x="770" y="1481" type="line"/>
    </contour>
    <contour>
      <point x="434" y="522" type="line"/>
      <point x="942" y="522" type="line"/>
      <point x="891" y="1305" type="line"/>
      <point x="877" y="1305" type="line"/>
    </contour>
  </outline>
</glyph>
<glyph name="E" format="1">
  <advance width="1136.64"/>
  <unicode hex="0045"/>
  <outline>
    <contour>
      <point x="379" y="1475" type="line"/>
      <point x="1276" y="1475" type="line"/>
      <point x="1231" y="1292" type="line"/>
      <point x="565" y="1292" type="line"/>
      <point x="455" y="854" type="line"/>
      <point x="983" y="854" type="line"/>
      <point x="940" y="680" type="line"/>
      <point x="414" y="680" type="line"/>
      <point x="289" y="182" type="line"/>
      <point x="979" y="182" type="line"/>
      <point x="932" y="0" type="line"/>
      <point x="12" y="0" type="line"/>
    </contour>
  </outline>
</glyph>
<glyph name="F" format="1">
  <advance width="1075.2"/>
  <unicode hex="0046"/>
  <outline>
    <contour>
      <point x="379" y="1475" type="line"/>
      <point x="1264" y="1475" type="line"/>
      <point x="1217" y="1292" type="line"/>
      <point x="567" y="1292" type="line"/>
      <point x="451" y="819" type="line"/>
      <point x="946" y="819" type="line"/>
      <point x="901" y="641" type="line"/>
      <point x="406" y="641" type="line"/>
      <point x="246" y="0" type="line"/>
      <point x="12" y="0" type="line"/>
    </contour>
  </outline>
</glyph>
<glyph name="G" format="1">
  <advance width="1288.192"/>
  <unicode hex="0047"/>
  <outline>
    <contour>
      <point x="834" y="1499" type="qcurve" smooth="yes"/>
      <point x="1048.92537313" y="1499.0"/>
      <point x="1247.53731343" y="1261.08955224"/>
      <point x="1255" y="1079" type="qcurve"/>
      <point x="1028" y="1030" type="line"/>
      <point x="1019.04477612" y="1167.31343284"/>
      <point x="924.940298507" y="1319.0"/>
      <point x="813" y="1319" type="qcurve" smooth="yes"/>
      <point x="665.985074627" y="1319.0"/>
      <point x="455.208955224" y="1020.1641791"/>
      <point x="397" y="803" type="qcurve" smooth="yes"/>
      <point x="369.388059701" y="703.746268657"/>
      <point x="344.0" y="535.656716418"/>
      <point x="344" y="467" type="qcurve" smooth="yes"/>
      <point x="344" y="463" type="line" smooth="yes"/>
      <point x="344.0" y="333.149253731"/>
      <point x="457.298507463" y="156.0"/>
      <point x="567" y="156" type="qcurve" smooth="yes"/>
      <point x="680.432835821" y="156.0"/>
      <point x="870.865671642" y="373.343283582"/>
      <point x="944" y="592" type="qcurve"/>
      <point x="659" y="592" type="line"/>
      <point x="686" y="698" type="line"/>
      <point x="1219" y="698" type="line"/>
      <point x="1042" y="-2" type="line"/>
      <point x="940" y="-2" type="line"/>
      <point x="1006" y="360" type="line"/>
      <point x="995" y="360" type="line"/>
      <point x="903.208955224" y="180.149253731"/>
      <point x="687.970149254" y="-25.0"/>
      <point x="532" y="-25" type="qcurve" smooth="yes"/>
      <point x="337.970149254" y="-25.0"/>
      <point x="111.0" y="237.895522388"/>
      <point x="111" y="467" type="qcurve" smooth="yes"/>
      <point x="111" y="475" type="line" smooth="yes"/>
      <point x="111.0" y="537.686567164"/>
      <point x="128.582089552" y="687.373134328"/>
      <point x="145" y="762" type="qcurve" smooth="yes"/>
      <point x="217.388059701" y="1087.37313433"/>
      <point x="566.089552239" y="1499.0"/>
    </contour>
  </outline>
</glyph>
<glyph name="H" format="1">
  <advance width="1296.384"/>
  <unicode hex="0048"/>
  <outline>
    <contour>
      <point x="1151" y="1475" type="line"/>
      <point x="1384" y="1475" type="line"/>
      <point x="1018" y="0" type="line"/>
      <point x="782" y="0" type="line"/>
      <point x="950" y="668" type="line"/>
      <point x="414" y="668" type="line"/>
      <point x="246" y="0" type="line"/>
      <point x="12" y="0" type="line"/>
      <point x="379" y="1475" type="line"/>
      <point x="614" y="1475" type="line"/>
      <point x="463" y="866" type="line"/>
      <point x="999" y="866" type="line"/>
    </contour>
  </outline>
</glyph>
<glyph name="J" format="1">
  <advance width="1042.432"/>
  <unicode hex="004A"/>
  <outline>
    <contour>
      <point x="905" y="1475" type="line"/>
      <point x="1139" y="1475" type="line"/>
      <point x="881" y="432" type="line" smooth="yes"/>
      <point x="824.28358209" y="204.388059701"/>
      <point x="572.492537313" y="-25.0"/>
      <point x="371" y="-25" type="qcurve" smooth="yes"/>
      <point x="199.358208955" y="-25.0"/>
      <point x="-2.0" y="136.970149254"/>
      <point x="-2" y="281" type="qcurve" smooth="yes"/>
      <point x="-2.0" y="311.597014925"/>
      <point x="4.53731343284" y="372.179104478"/>
      <point x="12" y="408" type="qcurve"/>
      <point x="242" y="457" type="line"/>
      <point x="232.298507463" y="418.940298507"/>
      <point x="223.0" y="352.358208955"/>
      <point x="223" y="324" type="qcurve" smooth="yes"/>
      <point x="223.0" y="241.164179104"/>
      <point x="306.910447761" y="162.0"/>
      <point x="389" y="162" type="qcurve" smooth="yes"/>
      <point x="482.28358209" y="162.0"/>
      <point x="612.432835821" y="301.223880597"/>
      <point x="649" y="446" type="qcurve" smooth="yes"/>
    </contour>
  </outline>
</glyph>
<glyph name="K" format="1">
  <advance width="1261.568"/>
  <unicode hex="004B"/>
  <outline>
    <contour>
      <point x="1194" y="1475" type="line"/>
      <point x="1464" y="1475" type="line"/>
      <point x="743" y="795" type="line"/>
      <point x="1128" y="0" type="line"/>
      <point x="877" y="0" type="line"/>
      <point x="498" y="799" type="line"/>
      <point x="498" y="807" type="line"/>
    </contour>
    <contour>
      <point x="379" y="1475" type="line"/>
      <point x="614" y="1475" type="line"/>
      <point x="246" y="0" type="line"/>
      <point x="12" y="0" type="line"/>
    </contour>
  </outline>
</glyph>
<glyph name="L" format="1">
  <advance width="1054.72"/>
  <unicode hex="004C"/>
  <outline>
    <contour>
      <point x="295" y="195" type="line"/>
      <point x="932" y="195" type="line"/>
      <point x="885" y="0" type="line"/>
      <point x="12" y="0" type="line"/>
      <point x="379" y="1475" type="line"/>
      <point x="614" y="1475" type="line"/>
    </contour>
  </outline>
</glyph>
<glyph name="N" format="1">
  <advance width="1320.96"/>
  <unicode hex="004E"/>
  <outline>
    <contour>
      <point x="1190" y="1475" type="line"/>
      <point x="1407" y="1475" type="line"/>
      <point x="1038" y="0" type="line"/>
      <point x="807" y="0" type="line"/>
      <point x="524" y="1133" type="line"/>
      <point x="510" y="1133" type="line"/>
      <point x="229" y="0" type="line"/>
      <point x="12" y="0" type="line"/>
      <point x="379" y="1475" type="line"/>
      <point x="633" y="1475" type="line"/>
      <point x="905" y="383" type="line"/>
      <point x="918" y="383" type="line"/>
    </contour>
  </outline>
</glyph>
<glyph name="R" format="1">
  <advance width="1239.04"/>
  <unicode hex="0052"/>
  <outline>
    <contour>
      <point x="809" y="1475" type="line" smooth="yes"/>
      <point x="1029.14925373" y="1475.0"/>
      <point x="1262.0" y="1294.11940299"/>
      <point x="1262" y="1118" type="qcurve" smooth="yes"/>
      <point x="1262.0" y="928.447761194"/>
      <point x="1012.01492537" y="687.089552239"/>
      <point x="815" y="655" type="qcurve"/>
      <point x="1067" y="0" type="line"/>
      <point x="819" y="0" type="line"/>
      <point x="588" y="625" type="line"/>
      <point x="401" y="625" type="line"/>
      <point x="246" y="0" type="line"/>
      <point x="12" y="0" type="line"/>
      <point x="379" y="1475" type="line"/>
    </contour>
    <contour>
      <point x="651" y="786" type="line" smooth="yes"/>
      <point x="822.641791045" y="786.0"/>
      <point x="1030.0" y="948.0"/>
      <point x="1030" y="1098" type="qcurve" smooth="yes"/>
      <point x="1030.0" y="1201.73134328"/>
      <point x="898.328358209" y="1305.0"/>
      <point x="764" y="1305" type="qcurve" smooth="yes"/>
      <point x="563" y="1305" type="line"/>
      <point x="434" y="786" type="line"/>
    </contour>
  </outline>
</glyph>
<glyph name="S" format="1">
  <advance width="1173.504"/>
  <unicode hex="0053"/>
  <outline>
    <contour>
      <point x="741" y="1497" type="qcurve" smooth="yes"/>
      <point x="933.537313433" y="1497.0"/>
      <point x="1170.76119403" y="1335.31343284"/>
      <point x="1223" y="1198" type="qcurve"/>
      <point x="1040" y="1087" type="line"/>
      <point x="997.462686567" y="1195.95522388"/>
      <point x="844.402985075" y="1321.0"/>
      <point x="725" y="1321" type="qcurve" smooth="yes"/>
      <point x="605.597014925" y="1321.0"/>
      <point x="477.0" y="1192.32835821"/>
      <point x="477" y="1108" type="qcurve" smooth="yes"/>
      <point x="477.0" y="1028.14925373"/>
      <point x="575.507462687" y="915.641791045"/>
      <point x="727" y="844" type="qcurve" smooth="yes"/>
      <point x="909.089552239" y="756.686567164"/>
      <point x="1063.0" y="568.298507463"/>
      <point x="1063" y="428" type="qcurve" smooth="yes"/>
      <point x="1063.0" y="222.029850746"/>
      <point x="764.671641791" y="-23.0"/>
      <point x="549" y="-23" type="qcurve" smooth="yes"/>
      <point x="331.835820896" y="-23.0"/>
      <point x="53.2537313433" y="158.044776119"/>
      <point x="4" y="317" type="qcurve"/>
      <point x="184" y="434" type="line"/>
      <point x="219.074626866" y="298.179104478"/>
      <point x="418.223880597" y="154.0"/>
      <point x="563" y="154" type="qcurve" smooth="yes"/>
      <point x="692.850746269" y="154.0"/>
      <point x="838.0" y="298.253731343"/>
      <point x="838" y="399" type="qcurve" smooth="yes"/>
      <point x="838.0" y="477.358208955"/>
      <point x="744.985074627" y="597.104477612"/>
      <point x="592" y="668" type="qcurve" smooth="yes"/>
      <point x="412.895522388" y="751.582089552"/>
      <point x="250.0" y="933.71641791"/>
      <point x="250" y="1077" type="qcurve" smooth="yes"/>
      <point x="250.0" y="1260.58208955"/>
      <point x="532.044776119" y="1497.0"/>
    </contour>
  </outline>
</glyph>
<glyph name="T" format="1">
  <advance width="1171.456"/>
  <unicode hex="0054"/>
  <outline>
    <contour>
      <point x="272" y="1475" type="line"/>
      <point x="1364" y="1475" type="line"/>
      <point x="1317" y="1280" type="line"/>
      <point x="887" y="1280" type="line"/>
      <point x="567" y="0" type="line"/>
      <point x="334" y="0" type="line"/>
      <point x="653" y="1280" type="line"/>
      <point x="223" y="1280" type="line"/>
    </contour>
  </outline>
</glyph>
<glyph name="W" format="1">
  <advance width="2007.04"/>
  <unicode hex="0057"/>
  <outline>
    <contour>
      <point x="1911" y="1475" type="line"/>
      <point x="2154" y="1475" type="line"/>
      <point x="1407" y="-10" type="line"/>
      <point x="1151" y="-10" type="line"/>
      <point x="1155" y="1184" type="line"/>
      <point x="1139" y="1184" type="line"/>
      <point x="549" y="-10" type="line"/>
      <point x="293" y="-10" type="line"/>
      <point x="287" y="1475" type="line"/>
      <point x="520" y="1475" type="line"/>
      <point x="489" y="266" type="line"/>
      <point x="502" y="266" type="line"/>
      <point x="1083" y="1475" type="line"/>
      <point x="1346" y="1475" type="line"/>
      <point x="1331" y="266" type="line"/>
      <point x="1343" y="266" type="line"/>
    </contour>
  </outline>
</glyph>
<glyph name="X" format="1">
  <advance width="1290.24"/>
  <unicode hex="0058"/>
  <outline>
    <contour>
      <point x="1202" y="1475" type="line"/>
      <point x="1450" y="1475" type="line"/>
      <point x="823" y="760" type="line"/>
      <point x="1110" y="0" type="line"/>
      <point x="860" y="0" type="line"/>
      <point x="651" y="575" type="line"/>
      <point x="160" y="0" type="line"/>
      <point x="-88" y="0" type="line"/>
      <point x="580" y="760" type="line"/>
      <point x="309" y="1475" type="line"/>
      <point x="559" y="1475" type="line"/>
      <point x="750" y="944" type="line"/>
    </contour>
  </outline>
</glyph>
<glyph name="Y" format="1">
  <advance width="1280.0"/>
  <unicode hex="0059"/>
  <outline>
    <contour>
      <point x="1251" y="1475" type="line"/>
      <point x="1489" y="1475" type="line"/>
      <point x="768" y="575" type="line"/>
      <point x="625" y="0" type="line"/>
      <point x="389" y="0" type="line"/>
      <point x="532" y="571" type="line"/>
      <point x="260" y="1475" type="line"/>
      <point x="510" y="1475" type="line"/>
      <point x="707" y="778" type="line"/>
    </contour>
  </outline>
</glyph>
<glyph name="bracketleft" format="1">
  <advance width="743.424"/>
  <unicode hex="005B"/>
  <outline>
    <contour>
      <point x="369" y="1493" type="line"/>
      <point x="930" y="1475" type="line"/>
      <point x="903" y="1372" type="line"/>
      <point x="551" y="1386" type="line"/>
      <point x="188" y="-76" type="line"/>
      <point x="545" y="-61" type="line"/>
      <point x="520" y="-164" type="line"/>
      <point x="-47" y="-182" type="line"/>
    </contour>
  </outline>
</glyph>
<glyph name="underscore" format="1">
  <advance width="1024.0"/>
  <unicode hex="005F"/>
  <outline>
    <contour>
      <point x="-162" y="-82" type="line"/>
      <point x="874" y="-82" type="line"/>
      <point x="848" y="-190" type="line"/>
      <point x="-188" y="-190" type="line"/>
    </contour>
  </outline>
</glyph>
<glyph name="g" format="1">
  <advance width="1077.248"/>
  <unicode hex="0067"/>
  <outline>
    <contour>
      <point x="872" y="1092" type="line"/>
      <point x="1081" y="1044" type="line"/>
      <point x="844" y="96" type="line" smooth="yes"/>
      <point x="778.328358209" y="-166.686567164"/>
      <point x="512.746268657" y="-389.0"/>
      <point x="262" y="-389" type="qcurve" smooth="yes"/>
      <point x="165.731343284" y="-389.0"/>
      <point x="14.223880597" y="-361.641791045"/>
      <point x="-41" y="-340" type="qcurve"/>
      <point x="-2" y="-182" type="line"/>
      <point x="53" y="-182" type="line"/>
      <point x="74.6417910448" y="-214.089552239"/>
      <point x="177.223880597" y="-268.0"/>
      <point x="272" y="-268" type="qcurve" smooth="yes"/>
      <point x="408.567164179" y="-268.0"/>
      <point x="572.447761194" y="-109.955223881"/>
      <point x="612" y="49" type="qcurve" smooth="yes"/>
      <point x="664" y="252" type="line"/>
      <point x="653" y="252" type="line"/>
      <point x="537.328358209" y="103.492537313"/>
      <point x="368.074626866" y="-18.0"/>
      <point x="283" y="-18" type="qcurve" smooth="yes"/>
      <point x="165.089552239" y="-18.0"/>
      <point x="51.0" y="161.686567164"/>
      <point x="51" y="299" type="qcurve" smooth="yes"/>
      <point x="51" y="303" type="line" smooth="yes"/>
      <point x="51.0" y="614.940298507"/>
      <point x="353.641791045" y="1092.0"/>
      <point x="532" y="1092" type="qcurve" smooth="yes"/>
      <point x="630.507462687" y="1092.0"/>
      <point x="743.805970149" y="981.910447761"/>
      <point x="805" y="864" type="qcurve"/>
      <point x="817" y="864" type="line"/>
    </contour>
    <contour>
      <point x="403" y="135" type="qcurve" smooth="yes"/>
      <point x="520.910447761" y="135.0"/>
      <point x="768.0" y="567.134328358"/>
      <point x="768" y="694" type="qcurve" smooth="yes"/>
      <point x="768.0" y="798.47761194"/>
      <point x="671.134328358" y="952.0"/>
      <point x="598" y="952" type="qcurve" smooth="yes"/>
      <point x="477.104477612" y="952.0"/>
      <point x="270.0" y="555.701492537"/>
      <point x="270" y="346" type="qcurve" smooth="yes"/>
      <point x="270.0" y="252.71641791"/>
      <point x="326.880597015" y="135.0"/>
    </contour>
  </outline>
</glyph>
<glyph name="j" format="1">
  <advance width="495.616"/>
  <unicode hex="006A"/>
  <outline>
    <contour>
      <point x="272" y="1073" type="line"/>
      <point x="492" y="1073" type="line"/>
      <point x="193" y="-127" type="line" smooth="yes"/>
      <point x="155.686567164" y="-277.0"/>
      <point x="-14.6119402985" y="-389.0"/>
      <point x="-137" y="-389" type="qcurve" smooth="yes"/>
      <point x="-193.71641791" y="-389.0"/>
      <point x="-285.701492537" y="-371.671641791"/>
      <point x="-326" y="-356" type="qcurve"/>
      <point x="-291" y="-217" type="line"/>
      <point x="-263.388059701" y="-231.179104478"/>
      <point x="-206.597014925" y="-244.0"/>
      <point x="-176" y="-244" type="qcurve" smooth="yes"/>
      <point x="-113.313432836" y="-244.0"/>
      <point x="-38.6567164179" y="-177.373134328"/>
      <point x="-20" y="-102" type="qcurve" smooth="yes"/>
    </contour>
    <contour>
      <point x="360" y="1483" type="line"/>
      <point x="608" y="1483" type="line"/>
      <point x="557" y="1278" type="line"/>
      <point x="309" y="1278" type="line"/>
    </contour>
  </outline>
</glyph>
<glyph name="l" format="1">
  <advance width="493.568"/>
  <unicode hex="006C"/>
  <outline>
    <contour>
      <point x="381" y="1507" type="line"/>
      <point x="610" y="1554" type="line"/>
      <point x="223" y="0" type="line"/>
      <point x="4" y="0" type="line"/>
    </contour>
  </outline>
</glyph>
<glyph name="m" format="1">
  <advance width="1634.304"/>
  <unicode hex="006D"/>
  <outline>
    <contour>
      <point x="1403" y="1085" type="qcurve" smooth="yes"/>
      <point x="1499.26865672" y="1085.0"/>
      <point x="1595.0" y="982.313432836"/>
      <point x="1595" y="895" type="qcurve" smooth="yes"/>
      <point x="1595.0" y="867.388059701"/>
      <point x="1585.95522388" y="798.567164179"/>
      <point x="1577" y="762" type="qcurve" smooth="yes"/>
      <point x="1386" y="0" type="line"/>
      <point x="1167" y="0" type="line"/>
      <point x="1346" y="715" type="line" smooth="yes"/>
      <point x="1351.97014925" y="741.119402985"/>
      <point x="1360.0" y="794.850746269"/>
      <point x="1360" y="815" type="qcurve" smooth="yes"/>
      <point x="1360.0" y="864.253731343"/>
      <point x="1310.73134328" y="920.0"/>
      <point x="1257" y="920" type="qcurve" smooth="yes"/>
      <point x="1202.52238806" y="920.0"/>
      <point x="1062.79104478" y="813.910447761"/>
      <point x="971" y="696" type="qcurve"/>
      <point x="799" y="0" type="line"/>
      <point x="580" y="0" type="line"/>
      <point x="758" y="715" type="line" smooth="yes"/>
      <point x="763.970149254" y="741.119402985"/>
      <point x="772.0" y="794.850746269"/>
      <point x="772" y="815" type="qcurve" smooth="yes"/>
      <point x="772.0" y="864.253731343"/>
      <point x="722.985074627" y="920.0"/>
      <point x="670" y="920" type="qcurve" smooth="yes"/>
      <point x="614.776119403" y="920.0"/>
      <point x="474.791044776" y="812.417910448"/>
      <point x="383" y="696" type="qcurve"/>
      <point x="209" y="0" type="line"/>
      <point x="-10" y="0" type="line"/>
      <point x="250" y="1044" type="line"/>
      <point x="481" y="1092" type="line"/>
      <point x="412" y="811" type="line"/>
      <point x="422" y="811" type="line"/>
      <point x="533.194029851" y="946.820895522"/>
      <point x="712.253731343" y="1085.0"/>
      <point x="813" y="1085" type="qcurve" smooth="yes"/>
      <point x="909.268656716" y="1085.0"/>
      <point x="1008.0" y="982.313432836"/>
      <point x="1008" y="895" type="qcurve" smooth="yes"/>
      <point x="1008.0" y="877.835820896"/>
      <point x="1001.71641791" y="834.134328358"/>
      <point x="995" y="811" type="qcurve"/>
      <point x="1010" y="811" type="line"/>
      <point x="1121.19402985" y="946.820895522"/>
      <point x="1302.25373134" y="1085.0"/>
    </contour>
  </outline>
</glyph>
<glyph name="n" format="1">
  <advance width="1050.624"/>
  <unicode hex="006E"/>
  <outline>
    <contour>
      <point x="817" y="1085" type="qcurve" smooth="yes"/>
      <point x="913.268656716" y="1085.0"/>
      <point x="1012.0" y="982.313432836"/>
      <point x="1012" y="895" type="qcurve" smooth="yes"/>
      <point x="1012.0" y="867.388059701"/>
      <point x="1000.70149254" y="798.567164179"/>
      <point x="991" y="762" type="qcurve" smooth="yes"/>
      <point x="803" y="0" type="line"/>
      <point x="584" y="0" type="line"/>
      <point x="762" y="715" type="line" smooth="yes"/>
      <point x="767.970149254" y="741.119402985"/>
      <point x="776.0" y="794.850746269"/>
      <point x="776" y="815" type="qcurve" smooth="yes"/>
      <point x="776.0" y="864.253731343"/>
      <point x="724.985074627" y="920.0"/>
      <point x="672" y="920" type="qcurve" smooth="yes"/>
      <point x="616.776119403" y="920.0"/>
      <point x="474.791044776" y="812.417910448"/>
      <point x="383" y="696" type="qcurve"/>
      <point x="209" y="0" type="line"/>
      <point x="-10" y="0" type="line"/>
      <point x="250" y="1044" type="line"/>
      <point x="481" y="1092" type="line"/>
      <point x="412" y="811" type="line"/>
      <point x="422" y="811" type="line"/>
      <point x="533.194029851" y="946.820895522"/>
      <point x="716.253731343" y="1085.0"/>
    </contour>
  </outline>
</glyph>
<glyph name="o" format="1">
  <advance width="1030.144"/>
  <unicode hex="006F"/>
  <outline>
    <contour>
      <point x="975" y="719" type="qcurve" smooth="yes"/>
      <point x="975" y="715" type="line" smooth="yes"/>
      <point x="975.0" y="665.746268657"/>
      <point x="960.179104478" y="551.970149254"/>
      <point x="946" y="496" type="qcurve" smooth="yes"/>
      <point x="890.776119403" y="274.358208955"/>
      <point x="621.462686567" y="-20.0"/>
      <point x="414" y="-20" type="qcurve" smooth="yes"/>
      <point x="250.567164179" y="-20.0"/>
      <point x="55.0" y="171.671641791"/>
      <point x="55" y="356" type="qcurve" smooth="yes"/>
      <point x="55" y="360" type="line" smooth="yes"/>
      <point x="55.0" y="407.76119403"/>
      <point x="70.5671641791" y="522.776119403"/>
      <point x="84" y="578" type="qcurve" smooth="yes"/>
      <point x="137.731343284" y="798.895522388"/>
      <point x="408.537313433" y="1094.0"/>
      <point x="616" y="1094" type="qcurve" smooth="yes"/>
      <point x="780.179104478" y="1094.0"/>
      <point x="975.0" y="902.582089552"/>
    </contour>
    <contour>
      <point x="725" y="502" type="qcurve" smooth="yes"/>
      <point x="743.656716418" y="573.641791045"/>
      <point x="762.0" y="690.492537313"/>
      <point x="762" y="739" type="qcurve" smooth="yes"/>
      <point x="762" y="743" type="line" smooth="yes"/>
      <point x="762.0" y="853.447761194"/>
      <point x="677.134328358" y="956.0"/>
      <point x="604" y="956" type="qcurve" smooth="yes"/>
      <point x="497.28358209" y="956.0"/>
      <point x="346.044776119" y="738.164179104"/>
      <point x="305" y="571" type="qcurve" smooth="yes"/>
      <point x="287.089552239" y="499.358208955"/>
      <point x="268.0" y="383.014925373"/>
      <point x="268" y="336" type="qcurve" smooth="yes"/>
      <point x="268" y="332" type="line" smooth="yes"/>
      <point x="268.0" y="221.552238806"/>
      <point x="352.865671642" y="117.0"/>
      <point x="426" y="117" type="qcurve" smooth="yes"/>
      <point x="532.71641791" y="117.0"/>
      <point x="683.955223881" y="337.074626866"/>
    </contour>
  </outline>
</glyph>
<glyph name="v" format="1">
  <advance width="1009.664"/>
  <unicode hex="0076"/>
  <outline>
    <contour>
      <point x="881" y="1073" type="line"/>
      <point x="1104" y="1073" type="line"/>
      <point x="487" y="-10" type="line"/>
      <point x="250" y="-10" type="line"/>
      <point x="174" y="1073" type="line"/>
      <point x="393" y="1073" type="line"/>
      <point x="422" y="215" type="line"/>
    </contour>
  </outline>
</glyph>
<glyph name="w" format="1">
  <advance width="1603.584"/>
  <unicode hex="0077"/>
  <outline>
    <contour>
      <point x="1468" y="1073" type="line"/>
      <point x="1692" y="1073" type="line"/>
      <point x="1106" y="-8" type="line"/>
      <point x="881" y="-8" type="line"/>
      <point x="870" y="807" type="line"/>
      <point x="453" y="-8" type="line"/>
      <point x="223" y="-8" type="line"/>
      <point x="178" y="1073" type="line"/>
      <point x="397" y="1073" type="line"/>
      <point x="399" y="229" type="line"/>
      <point x="825" y="1073" type="line"/>
      <point x="1040" y="1073" type="line"/>
      <point x="1047" y="229" type="line"/>
    </contour>
  </outline>
</glyph>
<glyph name="x" format="1">
  <advance width="1015.808"/>
  <unicode hex="0078"/>
  <outline>
    <contour>
      <point x="860" y="1073" type="line"/>
      <point x="1090" y="1073" type="line"/>
      <point x="618" y="547" type="line"/>
      <point x="834" y="0" type="line"/>
      <point x="610" y="0" type="line"/>
      <point x="469" y="391" type="line"/>
      <point x="141" y="0" type="line"/>
      <point x="-88" y="0" type="line"/>
      <point x="399" y="545" type="line"/>
      <point x="190" y="1073" type="line"/>
      <point x="416" y="1073" type="line"/>
      <point x="549" y="700" type="line"/>
    </contour>
  </outline>
</glyph>
<glyph name="z" format="1">
  <advance width="888.832"/>
  <unicode hex="007A"/>
  <outline>
    <contour>
      <point x="221" y="1067" type="line"/>
      <point x="963" y="1067" type="line"/>
      <point x="932" y="936" type="line"/>
      <point x="211" y="152" type="line"/>
      <point x="735" y="152" type="line"/>
      <point x="696" y="0" type="line"/>
      <point x="-76" y="0" type="line"/>
      <point x="-43" y="133" type="line"/>
      <point x="676" y="918" type="line"/>
      <point x="182" y="918" type="line"/>
    </contour>
  </outline>
</glyph>
<glyph name="section" format="1">
  <advance width="1212.416"/>
  <unicode hex="00A7"/>
  <outline>
    <contour>
      <point x="745" y="1499" type="qcurve" smooth="yes"/>
      <point x="892.014925373" y="1499.0"/>
      <point x="1148.25373134" y="1417.1641791"/>
      <point x="1249" y="1350" type="qcurve"/>
      <point x="1151" y="1206" type="line"/>
      <point x="1062.19402985" y="1264.20895522"/>
      <point x="839.746268657" y="1337.0"/>
      <point x="739" y="1337" type="qcurve" smooth="yes"/>
      <point x="650.940298507" y="1337.0"/>
      <point x="559.0" y="1277.98507463"/>
      <point x="559" y="1225" type="qcurve" smooth="yes"/>
      <point x="559.0" y="1175.74626866"/>
      <point x="668.044776119" y="1098.71641791"/>
      <point x="827" y="1042" type="qcurve" smooth="yes"/>
      <point x="1041.17910448" y="967.373134328"/>
      <point x="1198.0" y="825.805970149"/>
      <point x="1198" y="737" type="qcurve" smooth="yes"/>
      <point x="1198.0" y="622.820895522"/>
      <point x="987.089552239" y="472.52238806"/>
      <point x="805" y="477" type="qcurve"/>
      <point x="801" y="465" type="line"/>
      <point x="877.119402985" y="423.955223881"/>
      <point x="961.0" y="322.119402985"/>
      <point x="961" y="246" type="qcurve" smooth="yes"/>
      <point x="961.0" y="123.611940299"/>
      <point x="753.059701493" y="-25.0"/>
      <point x="565" y="-25" type="qcurve" smooth="yes"/>
      <point x="417.23880597" y="-25.0"/>
      <point x="161.985074627" y="57.8358208955"/>
      <point x="59" y="125" type="qcurve"/>
      <point x="160" y="268" type="line"/>
      <point x="246.567164179" y="209.791044776"/>
      <point x="470.253731343" y="137.0"/>
      <point x="571" y="137" type="qcurve" smooth="yes"/>
      <point x="659.805970149" y="137.0"/>
      <point x="752.0" y="196.268656716"/>
      <point x="752" y="250" type="qcurve" smooth="yes"/>
      <point x="752.0" y="298.507462687"/>
      <point x="641.447761194" y="375.28358209"/>
      <point x="481" y="432" type="qcurve" smooth="yes"/>
      <point x="269.059701493" y="506.626865672"/>
      <point x="113.0" y="648.194029851"/>
      <point x="113" y="737" type="qcurve" smooth="yes"/>
      <point x="113.0" y="851.925373134"/>
      <point x="323.402985075" y="1002.2238806"/>
      <point x="504" y="997" type="qcurve"/>
      <point x="508" y="1010" type="line"/>
      <point x="433.373134328" y="1051.04477612"/>
      <point x="350.0" y="1152.13432836"/>
      <point x="350" y="1229" type="qcurve" smooth="yes"/>
      <point x="350.0" y="1351.3880597"/>
      <point x="557.686567164" y="1499.0"/>
    </contour>
    <contour>
      <point x="768" y="549" type="qcurve" smooth="yes"/>
      <point x="876.208955224" y="549.0"/>
      <point x="999.0" y="630.328358209"/>
      <point x="999" y="696" type="qcurve" smooth="yes"/>
      <point x="999.0" y="737.791044776"/>
      <point x="918.164179104" y="823.492537313"/>
      <point x="801" y="872" type="qcurve" smooth="yes"/>
      <point x="748.76119403" y="893.641791045"/>
      <point x="603.686567164" y="926.0"/>
      <point x="541" y="926" type="qcurve" smooth="yes"/>
      <point x="433.537313433" y="926.0"/>
      <point x="309.0" y="843.671641791"/>
      <point x="309" y="778" type="qcurve" smooth="yes"/>
      <point x="309.0" y="736.955223881"/>
      <point x="391.582089552" y="651.253731343"/>
      <point x="508" y="602" type="qcurve" smooth="yes"/>
      <point x="561.731343284" y="580.358208955"/>
      <point x="705.313432836" y="549.0"/>
    </contour>
  </outline>
</glyph>
<glyph name="copyright" format="1">
  <advance width="1695.744"/>
  <unicode hex="00A9"/>
  <outline>
    <contour>
      <point x="1053" y="627" type="qcurve"/>
      <point x="1196" y="590" type="line"/>
      <point x="1169.88059701" y="460.149253731"/>
      <point x="1021.35820896" y="311.0"/>
      <point x="893" y="311" type="qcurve" smooth="yes"/>
      <point x="747.47761194" y="311.0"/>
      <point x="571.0" y="531.985074627"/>
      <point x="571" y="729" type="qcurve" smooth="yes"/>
      <point x="571" y="766" type="line" smooth="yes"/>
      <point x="571.0" y="961.52238806"/>
      <point x="746.492537313" y="1182.0"/>
      <point x="895" y="1182" type="qcurve" smooth="yes"/>
      <point x="1026.34328358" y="1182.0"/>
      <point x="1167.88059701" y="1037.3880597"/>
      <point x="1194" y="915" type="qcurve"/>
      <point x="1044" y="877" type="line"/>
      <point x="1024.59701493" y="969.537313433"/>
      <point x="956.194029851" y="1059.0"/>
      <point x="895" y="1059" type="qcurve" smooth="yes"/>
      <point x="810.671641791" y="1059.0"/>
      <point x="733.0" y="902.388059701"/>
      <point x="733" y="780" type="qcurve" smooth="yes"/>
      <point x="733" y="715" type="line" smooth="yes"/>
      <point x="733.0" y="594.104477612"/>
      <point x="810.671641791" y="436.0"/>
      <point x="895" y="436" type="qcurve" smooth="yes"/>
      <point x="960.671641791" y="436.0"/>
      <point x="1032.85074627" y="532.223880597"/>
    </contour>
    <contour>
      <point x="899" y="1499" type="qcurve" smooth="yes"/>
      <point x="1221.3880597" y="1499.0"/>
      <point x="1659.0" y="1060.88059701"/>
      <point x="1659" y="737" type="qcurve" smooth="yes"/>
      <point x="1659.0" y="414.611940299"/>
      <point x="1219.3880597" y="-25.0"/>
      <point x="897" y="-25" type="qcurve" smooth="yes"/>
      <point x="573.119402985" y="-25.0"/>
      <point x="135.0" y="413.119402985"/>
      <point x="135" y="737" type="qcurve" smooth="yes"/>
      <point x="135.0" y="1059.3880597"/>
      <point x="575.119402985" y="1499.0"/>
    </contour>
    <contour>
      <point x="899" y="47" type="qcurve" smooth="yes"/>
      <point x="1192.28358209" y="47.0"/>
      <point x="1577.0" y="442.223880597"/>
      <point x="1577" y="737" type="qcurve" smooth="yes"/>
      <point x="1577.0" y="1030.28358209"/>
      <point x="1190.28358209" y="1427.0"/>
      <point x="897" y="1427" type="qcurve" smooth="yes"/>
      <point x="602.223880597" y="1427.0"/>
      <point x="217.0" y="1032.52238806"/>
      <point x="217" y="737" type="qcurve" smooth="yes"/>
      <point x="217.0" y="443.71641791"/>
      <point x="604.223880597" y="47.0"/>
    </contour>
  </outline>
</glyph>
<glyph name="ordfeminine" format="1">
  <advance width="798.72"/>
  <unicode hex="00AA"/>
  <outline>
    <contour>
      <point x="608" y="1485" type="qcurve" smooth="yes"/>
      <point x="718.447761194" y="1485.0"/>
      <point x="829.0" y="1402.13432836"/>
      <point x="829" y="1329" type="qcurve" smooth="yes"/>
      <point x="829.0" y="1309.59701493"/>
      <point x="820.970149254" y="1261.11940299"/>
      <point x="815" y="1235" type="qcurve" smooth="yes"/>
      <point x="733" y="909" type="line" smooth="yes"/>
      <point x="731.507462687" y="900.044776119"/>
      <point x="727.0" y="880.208955224"/>
      <point x="727" y="872" type="qcurve" smooth="yes"/>
      <point x="727.0" y="852.597014925"/>
      <point x="755.910447761" y="827.47761194"/>
      <point x="788" y="823" type="qcurve"/>
      <point x="770" y="754" type="line"/>
      <point x="675.223880597" y="756.985074627"/>
      <point x="586.47761194" y="815.492537313"/>
      <point x="582" y="864" type="qcurve"/>
      <point x="517.820895522" y="804.298507463"/>
      <point x="402.686567164" y="750.0"/>
      <point x="340" y="750" type="qcurve" smooth="yes"/>
      <point x="268.358208955" y="750.0"/>
      <point x="176.0" y="832.373134328"/>
      <point x="176" y="907" type="qcurve" smooth="yes"/>
      <point x="176.0" y="1024.91044776"/>
      <point x="399.268656716" y="1182.02985075"/>
      <point x="653" y="1188" type="qcurve"/>
      <point x="668" y="1241" type="line" smooth="yes"/>
      <point x="672.47761194" y="1258.1641791"/>
      <point x="676.0" y="1286.05970149"/>
      <point x="676" y="1298" type="qcurve" smooth="yes"/>
      <point x="676.0" y="1336.80597015"/>
      <point x="621.23880597" y="1374.0"/>
      <point x="569" y="1374" type="qcurve" smooth="yes"/>
      <point x="519.0" y="1374.0"/>
      <point x="416.179104478" y="1346.10447761"/>
      <point x="352" y="1317" type="qcurve"/>
      <point x="324" y="1419" type="line"/>
      <point x="395.641791045" y="1451.08955224"/>
      <point x="533.373134328" y="1485.0"/>
    </contour>
    <contour>
      <point x="592" y="940" type="qcurve"/>
      <point x="637" y="1118" type="line"/>
      <point x="457.895522388" y="1113.52238806"/>
      <point x="326.0" y="1006.65671642"/>
      <point x="326" y="938" type="qcurve" smooth="yes"/>
      <point x="326.0" y="895.462686567"/>
      <point x="377.731343284" y="848.0"/>
      <point x="424" y="848" type="qcurve" smooth="yes"/>
      <point x="457.582089552" y="848.0"/>
      <point x="544.23880597" y="894.47761194"/>
    </contour>
    <contour>
      <point x="117" y="608" type="line"/>
      <point x="719" y="608" type="line"/>
      <point x="694" y="514" type="line"/>
      <point x="92" y="514" type="line"/>
    </contour>
  </outline>
</glyph>
<glyph name="guillemotleft" format="1">
  <advance width="985.088"/>
  <unicode hex="00AB"/>
  <outline>
    <contour>
      <point x="463" y="922" type="line"/>
      <point x="600" y="922" type="line"/>
      <point x="279" y="530" type="line"/>
      <point x="403" y="152" type="line"/>
      <point x="283" y="152" type="line"/>
      <point x="47" y="537" type="line"/>
    </contour>
    <contour>
      <point x="883" y="922" type="line"/>
      <point x="1020" y="922" type="line"/>
      <point x="698" y="530" type="line"/>
      <point x="821" y="152" type="line"/>
      <point x="702" y="152" type="line"/>
      <point x="467" y="537" type="line"/>
    </contour>
  </outline>
</glyph>
<glyph name="uni00AE" format="1">
  <advance width="1695.744"/>
  <unicode hex="00AE"/>
  <outline>
    <contour>
      <point x="1026" y="696" type="qcurve"/>
      <point x="1253" y="326" type="line"/>
      <point x="1081" y="326" type="line"/>
      <point x="868" y="676" type="line"/>
      <point x="782" y="676" type="line"/>
      <point x="782" y="326" type="line"/>
      <point x="625" y="326" type="line"/>
      <point x="625" y="1174" type="line"/>
      <point x="918" y="1174" type="line" smooth="yes"/>
      <point x="1053.82089552" y="1174.0"/>
      <point x="1217.0" y="1050.3880597"/>
      <point x="1217" y="928" type="qcurve" smooth="yes"/>
      <point x="1217.0" y="834.71641791"/>
      <point x="1114.80597015" y="717.641791045"/>
    </contour>
    <contour>
      <point x="899" y="1499" type="qcurve" smooth="yes"/>
      <point x="1221.3880597" y="1499.0"/>
      <point x="1659.0" y="1060.88059701"/>
      <point x="1659" y="737" type="qcurve" smooth="yes"/>
      <point x="1659.0" y="414.611940299"/>
      <point x="1219.3880597" y="-25.0"/>
      <point x="897" y="-25" type="qcurve" smooth="yes"/>
      <point x="573.119402985" y="-25.0"/>
      <point x="135.0" y="413.119402985"/>
      <point x="135" y="737" type="qcurve" smooth="yes"/>
      <point x="135.0" y="1059.3880597"/>
      <point x="575.119402985" y="1499.0"/>
    </contour>
    <contour>
      <point x="899" y="47" type="qcurve" smooth="yes"/>
      <point x="1192.28358209" y="47.0"/>
      <point x="1577.0" y="442.223880597"/>
      <point x="1577" y="737" type="qcurve" smooth="yes"/>
      <point x="1577.0" y="1030.28358209"/>
      <point x="1190.28358209" y="1427.0"/>
      <point x="897" y="1427" type="qcurve" smooth="yes"/>
      <point x="602.223880597" y="1427.0"/>
      <point x="217.0" y="1032.52238806"/>
      <point x="217" y="737" type="qcurve" smooth="yes"/>
      <point x="217.0" y="443.71641791"/>
      <point x="604.223880597" y="47.0"/>
    </contour>
    <contour>
      <point x="903" y="791" type="line" smooth="yes"/>
      <point x="978.373134328" y="791.0"/>
      <point x="1057.0" y="857.343283582"/>
      <point x="1057" y="926" type="qcurve" smooth="yes"/>
      <point x="1057.0" y="990.179104478"/>
      <point x="977.865671642" y="1057.0"/>
      <point x="901" y="1057" type="qcurve" smooth="yes"/>
      <point x="778" y="1057" type="line"/>
      <point x="778" y="791" type="line"/>
    </contour>
  </outline>
</glyph>
<glyph name="paragraph" format="1">
  <advance width="1105.92"/>
  <unicode hex="00B6"/>
  <outline>
    <contour>
      <point x="748" y="1475" type="qcurve" smooth="yes"/>
      <point x="1186" y="1475" type="line"/>
      <point x="819" y="0" type="line"/>
      <point x="705" y="0" type="line"/>
      <point x="1047" y="1372" type="line"/>
      <point x="854" y="1372" type="line"/>
      <point x="514" y="0" type="line"/>
      <point x="399" y="0" type="line"/>
      <point x="571" y="690" type="line"/>
      <point x="410.552238806" y="713.134328358"/>
      <point x="197.0" y="878.343283582"/>
      <point x="197" y="1047" type="qcurve" smooth="yes"/>
      <point x="197.0" y="1229.8358209"/>
      <point x="484.567164179" y="1475.0"/>
    </contour>
  </outline>
</glyph>
<glyph name="periodcentered" format="1">
  <advance width="430.08"/>
  <unicode hex="00B7"/>
  <outline>
    <contour>
      <point x="221" y="709" type="qcurve" smooth="yes"/>
      <point x="280.701492537" y="709.0"/>
      <point x="360.0" y="628.701492537"/>
      <point x="360" y="569" type="qcurve" smooth="yes"/>
      <point x="360.0" y="509.298507463"/>
      <point x="280.701492537" y="430.0"/>
      <point x="221" y="430" type="qcurve" smooth="yes"/>
      <point x="162.791044776" y="430.0"/>
      <point x="84.0" y="509.298507463"/>
      <point x="84" y="569" type="qcurve" smooth="yes"/>
      <point x="84.0" y="628.701492537"/>
      <point x="162.791044776" y="709.0"/>
    </contour>
  </outline>
</glyph>
<glyph name="cedilla" format="1">
  <advance width="1024.0"/>
  <unicode hex="00B8"/>
  <outline>
    <contour>
      <point x="438" y="-100" type="qcurve" smooth="yes"/>
      <point x="508.149253731" y="-100.0"/>
      <point x="588.0" y="-156.76119403"/>
      <point x="588" y="-209" type="qcurve" smooth="yes"/>
      <point x="588.0" y="-297.805970149"/>
      <point x="388.462686567" y="-389.0"/>
      <point x="231" y="-389" type="qcurve" smooth="yes"/>
      <point x="188.462686567" y="-389.0"/>
      <point x="96.3134328358" y="-383.47761194"/>
      <point x="59" y="-379" type="qcurve"/>
      <point x="74" y="-324" type="line"/>
      <point x="106.089552239" y="-326.985074627"/>
      <point x="173.388059701" y="-332.0"/>
      <point x="201" y="-332" type="qcurve" smooth="yes"/>
      <point x="316.671641791" y="-332.0"/>
      <point x="434.0" y="-283.044776119"/>
      <point x="434" y="-242" type="qcurve" smooth="yes"/>
      <point x="434.0" y="-217.373134328"/>
      <point x="394.805970149" y="-188.0"/>
      <point x="356" y="-188" type="qcurve" smooth="yes"/>
      <point x="330.626865672" y="-188.0"/>
      <point x="278.089552239" y="-198.552238806"/>
      <point x="246" y="-209" type="qcurve"/>
      <point x="199" y="-172" type="line"/>
      <point x="367" y="0" type="line"/>
      <point x="457" y="0" type="line"/>
      <point x="350" y="-111" type="line"/>
      <point x="371.641791045" y="-105.776119403"/>
      <point x="415.611940299" y="-100.0"/>
    </contour>
  </outline>
</glyph>
<glyph name="guillemotright" format="1">
  <advance width="985.088"/>
  <unicode hex="00BB"/>
  <outline>
    <contour>
      <point x="283" y="922" type="line"/>
      <point x="518" y="537" type="line"/>
      <point x="102" y="152" type="line"/>
      <point x="-35" y="152" type="line"/>
      <point x="287" y="543" type="line"/>
      <point x="164" y="922" type="line"/>
    </contour>
    <contour>
      <point x="702" y="922" type="line"/>
      <point x="938" y="537" type="line"/>
      <point x="522" y="152" type="line"/>
      <point x="385" y="152" type="line"/>
      <point x="707" y="543" type="line"/>
      <point x="582" y="922" type="line"/>
    </contour>
  </outline>
</glyph>
<glyph name="questiondown" format="1">
  <advance width="960.512"/>
  <unicode hex="00BF"/>
  <outline>
    <contour>
      <point x="700" y="358" type="qcurve"/>
      <point x="852" y="264" type="line"/>
      <point x="760.208955224" y="125.194029851"/>
      <point x="525.805970149" y="-18.0"/>
      <point x="387" y="-18" type="qcurve" smooth="yes"/>
      <point x="219.089552239" y="-18.0"/>
      <point x="16.0" y="145.417910448"/>
      <point x="16" y="279" type="qcurve" smooth="yes"/>
      <point x="16.0" y="426.76119403"/>
      <point x="183.492537313" y="621.71641791"/>
      <point x="332" y="715" type="qcurve" smooth="yes"/>
      <point x="444.686567164" y="786.641791045"/>
      <point x="543.671641791" y="907.611940299"/>
      <point x="578" y="1030" type="qcurve"/>
      <point x="725" y="1030" type="line"/>
      <point x="698.880597015" y="851.641791045"/>
      <point x="585.835820896" y="679.820895522"/>
      <point x="453" y="594" type="qcurve" smooth="yes"/>
      <point x="358.223880597" y="532.805970149"/>
      <point x="240.0" y="394.313432836"/>
      <point x="240" y="307" type="qcurve" smooth="yes"/>
      <point x="240.0" y="232.373134328"/>
      <point x="336.119402985" y="156.0"/>
      <point x="410" y="156" type="qcurve" smooth="yes"/>
      <point x="487.611940299" y="156.0"/>
      <point x="626.865671642" y="251.28358209"/>
    </contour>
    <contour>
      <point x="723" y="1495" type="qcurve" smooth="yes"/>
      <point x="781.208955224" y="1495.0"/>
      <point x="858.0" y="1418.71641791"/>
      <point x="858" y="1362" type="qcurve" smooth="yes"/>
      <point x="858.0" y="1303.79104478"/>
      <point x="781.208955224" y="1227.0"/>
      <point x="723" y="1227" type="qcurve" smooth="yes"/>
      <point x="666.28358209" y="1227.0"/>
      <point x="590.0" y="1303.79104478"/>
      <point x="590" y="1362" type="qcurve" smooth="yes"/>
      <point x="590.0" y="1418.71641791"/>
      <point x="666.28358209" y="1495.0"/>
    </contour>
  </outline>
</glyph>
<glyph name="AE" format="1">
  <advance width="1914.88"/>
  <unicode hex="00C6"/>
  <outline>
    <contour>
      <point x="985" y="1475" type="line"/>
      <point x="2054" y="1475" type="line"/>
      <point x="2007" y="1292" type="line"/>
      <point x="1362" y="1292" type="line"/>
      <point x="1253" y="854" type="line"/>
      <point x="1761" y="854" type="line"/>
      <point x="1718" y="680" type="line"/>
      <point x="1210" y="680" type="line"/>
      <point x="1085" y="182" type="line"/>
      <point x="1757" y="182" type="line"/>
      <point x="1710" y="0" type="line"/>
      <point x="813" y="0" type="line"/>
      <point x="905" y="365" type="line"/>
      <point x="399" y="365" type="line"/>
      <point x="129" y="0" type="line"/>
      <point x="-119" y="0" type="line"/>
    </contour>
    <contour>
      <point x="944" y="522" type="line"/>
      <point x="1139" y="1298" type="line"/>
      <point x="1085" y="1298" type="line"/>
      <point x="506" y="522" type="line"/>
    </contour>
  </outline>
</glyph>
<glyph name="Eth" format="1">
  <advance width="1357.824"/>
  <unicode hex="00D0"/>
  <outline>
    <contour>
      <point x="1346" y="967" type="qcurve" smooth="yes"/>
      <point x="1346" y="961" type="line" smooth="yes"/>
      <point x="1346.0" y="898.313432836"/>
      <point x="1331.92537313" y="779.656716418"/>
      <point x="1317" y="711" type="qcurve" smooth="yes"/>
      <point x="1235.65671642" y="361.0"/>
      <point x="812.955223881" y="0.0"/>
      <point x="504" y="0" type="qcurve" smooth="yes"/>
      <point x="88" y="0" type="line"/>
      <point x="258" y="676" type="line"/>
      <point x="84" y="676" type="line"/>
      <point x="129" y="858" type="line"/>
      <point x="303" y="858" type="line"/>
      <point x="455" y="1475" type="line"/>
      <point x="801" y="1475" type="line" smooth="yes"/>
      <point x="1046.52238806" y="1475.0"/>
      <point x="1346.0" y="1225.20895522"/>
    </contour>
    <contour>
      <point x="1071" y="696" type="qcurve" smooth="yes"/>
      <point x="1086.67164179" y="754.208955224"/>
      <point x="1104.0" y="886.298507463"/>
      <point x="1104" y="946" type="qcurve" smooth="yes"/>
      <point x="1104" y="954" type="line" smooth="yes"/>
      <point x="1104.0" y="1121.1641791"/>
      <point x="921.492537313" y="1294.0"/>
      <point x="770" y="1294" type="qcurve" smooth="yes"/>
      <point x="633" y="1294" type="line"/>
      <point x="522" y="858" type="line"/>
      <point x="774" y="858" type="line"/>
      <point x="729" y="676" type="line"/>
      <point x="477" y="676" type="line"/>
      <point x="354" y="180" type="line"/>
      <point x="518" y="180" type="line" smooth="yes"/>
      <point x="712.029850746" y="180.0"/>
      <point x="1003.8358209" y="439.28358209"/>
    </contour>
  </outline>
</glyph>
<glyph name="multiply" format="1">
  <advance width="1228.8"/>
  <unicode hex="00D7"/>
  <outline>
    <contour>
      <point x="788" y="727" type="line"/>
      <point x="1157" y="367" type="line"/>
      <point x="1022" y="233" type="line"/>
      <point x="662" y="602" type="line"/>
      <point x="303" y="233" type="line"/>
      <point x="168" y="367" type="line"/>
      <point x="537" y="727" type="line"/>
      <point x="168" y="1087" type="line"/>
      <point x="303" y="1221" type="line"/>
      <point x="662" y="852" type="line"/>
      <point x="1022" y="1221" type="line"/>
      <point x="1157" y="1087" type="line"/>
    </contour>
  </outline>
</glyph>
<glyph name="Oslash" format="1">
  <advance width="1284.096"/>
  <unicode hex="00D8"/>
  <outline>
    <contour>
      <point x="1319" y="1673" type="line"/>
      <point x="1462" y="1673" type="line"/>
      <point x="1192" y="1319" type="line"/>
      <point x="1231.55223881" y="1259.29850746"/>
      <point x="1274.0" y="1101.28358209"/>
      <point x="1274" y="1008" type="qcurve" smooth="yes"/>
      <point x="1274" y="999" type="line" smooth="yes"/>
      <point x="1274.0" y="931.835820896"/>
      <point x="1254.1641791" y="773.880597015"/>
      <point x="1237" y="700" type="qcurve" smooth="yes"/>
      <point x="1165.35820896" y="379.104477612"/>
      <point x="819.179104478" y="-25.0"/>
      <point x="555" y="-25" type="qcurve" smooth="yes"/>
      <point x="466.194029851" y="-25.0"/>
      <point x="319.223880597" y="25.7313432836"/>
      <point x="264" y="72" type="qcurve"/>
      <point x="68" y="-195" type="line"/>
      <point x="-78" y="-195" type="line"/>
      <point x="190" y="156" type="line"/>
      <point x="151.940298507" y="215.701492537"/>
      <point x="111.0" y="372.223880597"/>
      <point x="111" y="467" type="qcurve" smooth="yes"/>
      <point x="111" y="475" type="line" smooth="yes"/>
      <point x="111.0" y="542.164179104"/>
      <point x="130.582089552" y="700.865671642"/>
      <point x="147" y="774" type="qcurve" smooth="yes"/>
      <point x="219.388059701" y="1094.89552239"/>
      <point x="564.820895522" y="1499.0"/>
      <point x="829" y="1499" type="qcurve" smooth="yes"/>
      <point x="917.805970149" y="1499.0"/>
      <point x="1065.52238806" y="1448.01492537"/>
      <point x="1120" y="1401" type="qcurve"/>
    </contour>
    <contour>
      <point x="342" y="338" type="qcurve"/>
      <point x="999" y="1235" type="line"/>
      <point x="968.402985075" y="1277.53731343"/>
      <point x="877.686567164" y="1327.0"/>
      <point x="815" y="1327" type="qcurve" smooth="yes"/>
      <point x="667.985074627" y="1327.0"/>
      <point x="448.194029851" y="1043.62686567"/>
      <point x="387" y="819" type="qcurve" smooth="yes"/>
      <point x="356.402985075" y="709.298507463"/>
      <point x="328.0" y="533.149253731"/>
      <point x="328" y="463" type="qcurve" smooth="yes"/>
      <point x="328" y="459" type="line" smooth="yes"/>
      <point x="328.0" y="426.910447761"/>
      <point x="334.537313433" y="365.611940299"/>
    </contour>
    <contour>
      <point x="997" y="655" type="qcurve" smooth="yes"/>
      <point x="1026.10447761" y="765.447761194"/>
      <point x="1055.0" y="941.850746269"/>
      <point x="1055" y="1012" type="qcurve" smooth="yes"/>
      <point x="1055" y="1016" type="line" smooth="yes"/>
      <point x="1055.0" y="1048.08955224"/>
      <point x="1048.71641791" y="1106.88059701"/>
      <point x="1042" y="1133" type="qcurve"/>
      <point x="385" y="238" type="line"/>
      <point x="415.597014925" y="196.208955224"/>
      <point x="506.313432836" y="147.0"/>
      <point x="569" y="147" type="qcurve" smooth="yes"/>
      <point x="716.014925373" y="147.0"/>
      <point x="935.805970149" y="430.373134328"/>
    </contour>
  </outline>
</glyph>
<glyph name="Thorn" format="1">
  <advance width="1181.696"/>
  <unicode hex="00DE"/>
  <outline>
    <contour>
      <point x="725" y="1196" type="line" smooth="yes"/>
      <point x="945.149253731" y="1196.0"/>
      <point x="1178.0" y="1010.86567164"/>
      <point x="1178" y="834" type="qcurve" smooth="yes"/>
      <point x="1178.0" y="599.671641791"/>
      <point x="835.895522388" y="319.0"/>
      <point x="565" y="319" type="qcurve" smooth="yes"/>
      <point x="326" y="319" type="line"/>
      <point x="246" y="0" type="line"/>
      <point x="12" y="0" type="line"/>
      <point x="379" y="1475" type="line"/>
      <point x="614" y="1475" type="line"/>
      <point x="545" y="1196" type="line"/>
    </contour>
    <contour>
      <point x="561" y="492" type="line" smooth="yes"/>
      <point x="734.134328358" y="492.0"/>
      <point x="946.0" y="663.0"/>
      <point x="946" y="813" type="qcurve" smooth="yes"/>
      <point x="946.0" y="918.223880597"/>
      <point x="813.820895522" y="1028.0"/>
      <point x="678" y="1028" type="qcurve" smooth="yes"/>
      <point x="494" y="1028" type="line"/>
      <point x="360" y="492" type="line"/>
    </contour>
  </outline>
</glyph>
<glyph name="oslash" format="1">
  <advance width="1030.144"/>
  <unicode hex="00F8"/>
  <outline>
    <contour>
      <point x="1004" y="1268" type="line"/>
      <point x="1135" y="1268" type="line"/>
      <point x="903" y="971" type="line"/>
      <point x="938.074626866" y="924.731343284"/>
      <point x="975.0" y="798.104477612"/>
      <point x="975" y="719" type="qcurve" smooth="yes"/>
      <point x="975" y="715" type="line" smooth="yes"/>
      <point x="975.0" y="665.746268657"/>
      <point x="960.179104478" y="551.970149254"/>
      <point x="946" y="496" type="qcurve" smooth="yes"/>
      <point x="890.776119403" y="274.358208955"/>
      <point x="621.462686567" y="-20.0"/>
      <point x="414" y="-20" type="qcurve" smooth="yes"/>
      <point x="349.820895522" y="-20.0"/>
      <point x="241.029850746" y="9.38805970149"/>
      <point x="197" y="37" type="qcurve"/>
      <point x="27" y="-195" type="line"/>
      <point x="-104" y="-195" type="line"/>
      <point x="127" y="102" type="line"/>
      <point x="91.9253731343" y="149.76119403"/>
      <point x="55.0" y="276.895522388"/>
      <point x="55" y="356" type="qcurve" smooth="yes"/>
      <point x="55" y="360" type="line" smooth="yes"/>
      <point x="55.0" y="407.76119403"/>
      <point x="70.5671641791" y="522.776119403"/>
      <point x="84" y="578" type="qcurve" smooth="yes"/>
      <point x="137.731343284" y="798.895522388"/>
      <point x="408.537313433" y="1094.0"/>
      <point x="616" y="1094" type="qcurve" smooth="yes"/>
      <point x="680.179104478" y="1094.0"/>
      <point x="788.462686567" y="1063.10447761"/>
      <point x="831" y="1034" type="qcurve"/>
    </contour>
    <contour>
      <point x="739" y="477" type="qcurve" smooth="yes"/>
      <point x="759.149253731" y="548.641791045"/>
      <point x="780.0" y="677.268656716"/>
      <point x="780" y="731" type="qcurve" smooth="yes"/>
      <point x="780" y="735" type="line" smooth="yes"/>
      <point x="780.0" y="758.134328358"/>
      <point x="776.47761194" y="801.089552239"/>
      <point x="772" y="819" type="qcurve"/>
      <point x="295" y="170" type="line"/>
      <point x="316.641791045" y="140.895522388"/>
      <point x="380.955223881" y="111.0"/>
      <point x="422" y="111" type="qcurve" smooth="yes"/>
      <point x="536.179104478" y="111.0"/>
      <point x="696.462686567" y="316.552238806"/>
    </contour>
    <contour>
      <point x="260" y="256" type="qcurve"/>
      <point x="735" y="903" type="line"/>
      <point x="714.104477612" y="932.104477612"/>
      <point x="648.298507463" y="963.0"/>
      <point x="608" y="963" type="qcurve" smooth="yes"/>
      <point x="493.820895522" y="963.0"/>
      <point x="333.537313433" y="756.955223881"/>
      <point x="291" y="598" type="qcurve" smooth="yes"/>
      <point x="272.343283582" y="526.358208955"/>
      <point x="252.0" y="395.731343284"/>
      <point x="252" y="342" type="qcurve" smooth="yes"/>
      <point x="252" y="338" type="line" smooth="yes"/>
      <point x="252.0" y="314.865671642"/>
      <point x="255.52238806" y="274.656716418"/>
    </contour>
  </outline>
</glyph>
<glyph name="thorn" format="1">
  <advance width="1077.248"/>
  <unicode hex="00FE"/>
  <outline>
    <contour>
      <point x="1026" y="776" type="qcurve" smooth="yes"/>
      <point x="1026" y="772" type="line" smooth="yes"/>
      <point x="1026.0" y="458.567164179"/>
      <point x="723.865671642" y="-18.0"/>
      <point x="547" y="-18" type="qcurve" smooth="yes"/>
      <point x="449.23880597" y="-18.0"/>
      <point x="333.194029851" y="91.5970149254"/>
      <point x="272" y="211" type="qcurve"/>
      <point x="262" y="211" type="line"/>
      <point x="113" y="-385" type="line"/>
      <point x="-106" y="-385" type="line"/>
      <point x="365" y="1507" type="line"/>
      <point x="596" y="1554" type="line"/>
      <point x="414" y="823" type="line"/>
      <point x="424" y="823" type="line"/>
      <point x="540.417910448" y="970.014925373"/>
      <point x="710.671641791" y="1092.0"/>
      <point x="795" y="1092" type="qcurve" smooth="yes"/>
      <point x="912.164179104" y="1092.0"/>
      <point x="1026.0" y="911.820895522"/>
    </contour>
    <contour>
      <point x="479" y="121" type="qcurve" smooth="yes"/>
      <point x="599.895522388" y="121.0"/>
      <point x="807.0" y="517.805970149"/>
      <point x="807" y="729" type="qcurve" smooth="yes"/>
      <point x="807.0" y="822.28358209"/>
      <point x="750.119402985" y="938.0"/>
      <point x="674" y="938" type="qcurve" smooth="yes"/>
      <point x="556.089552239" y="938.0"/>
      <point x="309.0" y="507.358208955"/>
      <point x="309" y="379" type="qcurve" smooth="yes"/>
      <point x="309.0" y="276.76119403"/>
      <point x="407.358208955" y="121.0"/>
    </contour>
  </outline>
</glyph>
<glyph name="Lslash" format="1">
  <advance width="1130.496"/>
  <unicode hex="0141"/>
  <outline>
    <contour>
      <point x="367" y="195" type="line"/>
      <point x="1010" y="195" type="line"/>
      <point x="961" y="0" type="line"/>
      <point x="88" y="0" type="line"/>
      <point x="246" y="629" type="line"/>
      <point x="51" y="553" type="line"/>
      <point x="100" y="741" type="line"/>
      <point x="291" y="819" type="line"/>
      <point x="455" y="1475" type="line"/>
      <point x="684" y="1475" type="line"/>
      <point x="545" y="913" type="line"/>
      <point x="860" y="1040" type="line"/>
      <point x="813" y="850" type="line"/>
      <point x="498" y="725" type="line"/>
    </contour>
  </outline>
</glyph>
<glyph name="lslash" format="1">
  <advance width="647.168"/>
  <unicode hex="0142"/>
  <outline>
    <contour>
      <point x="520" y="899" type="line"/>
      <point x="707" y="975" type="line"/>
      <point x="662" y="793" type="line"/>
      <point x="475" y="717" type="line"/>
      <point x="297" y="0" type="line"/>
      <point x="84" y="0" type="line"/>
      <point x="242" y="631" type="line"/>
      <point x="55" y="555" type="line"/>
      <point x="100" y="739" type="line"/>
      <point x="287" y="811" type="line"/>
      <point x="459" y="1507" type="line"/>
      <point x="682" y="1554" type="line"/>
    </contour>
  </outline>
</glyph>
<glyph name="circumflex" format="1">
  <advance width="1024.0"/>
  <unicode hex="02C6"/>
  <outline>
    <contour>
      <point x="848" y="1538" type="line"/>
      <point x="1008" y="1206" type="line"/>
      <point x="905" y="1206" type="line"/>
      <point x="733" y="1403" type="line"/>
      <point x="467" y="1206" type="line"/>
      <point x="348" y="1206" type="line"/>
      <point x="674" y="1538" type="line"/>
    </contour>
  </outline>
</glyph>
<glyph name="breve" format="1">
  <advance width="1024.0"/>
  <unicode hex="02D8"/>
  <outline>
    <contour>
      <point x="963" y="1544" type="qcurve"/>
      <point x="1065" y="1544" type="line"/>
      <point x="1020.97014925" y="1385.04477612"/>
      <point x="834.0" y="1206.0"/>
      <point x="684" y="1206" type="qcurve" smooth="yes"/>
      <point x="557.134328358" y="1206.0"/>
      <point x="426.0" y="1334.05970149"/>
      <point x="426" y="1446" type="qcurve" smooth="yes"/>
      <point x="426.0" y="1469.13432836"/>
      <point x="433.52238806" y="1517.88059701"/>
      <point x="438" y="1544" type="qcurve"/>
      <point x="537" y="1544" type="line"/>
      <point x="535.507462687" y="1533.55223881"/>
      <point x="535.0" y="1514.70149254"/>
      <point x="535" y="1505" type="qcurve" smooth="yes"/>
      <point x="535.0" y="1425.89552239"/>
      <point x="619.686567164" y="1341.0"/>
      <point x="707" y="1341" type="qcurve" smooth="yes"/>
      <point x="803.268656716" y="1341.0"/>
      <point x="924.194029851" y="1446.23880597"/>
    </contour>
  </outline>
</glyph>
<glyph name="ring" format="1">
  <advance width="1024.0"/>
  <unicode hex="02DA"/>
  <outline>
    <contour>
      <point x="717" y="1587" type="qcurve" smooth="yes"/>
      <point x="819.23880597" y="1587.0"/>
      <point x="942.0" y="1478.58208955"/>
      <point x="942" y="1395" type="qcurve" smooth="yes"/>
      <point x="942.0" y="1307.68656716"/>
      <point x="819.23880597" y="1198.0"/>
      <point x="717" y="1198" type="qcurve" smooth="yes"/>
      <point x="614.76119403" y="1198.0"/>
      <point x="492.0" y="1307.68656716"/>
      <point x="492" y="1395" type="qcurve" smooth="yes"/>
      <point x="492.0" y="1478.58208955"/>
      <point x="614.76119403" y="1587.0"/>
    </contour>
    <contour>
      <point x="717" y="1278" type="qcurve" smooth="yes"/>
      <point x="764.014925373" y="1278.0"/>
      <point x="825.0" y="1344.25373134"/>
      <point x="825" y="1395" type="qcurve" smooth="yes"/>
      <point x="825.0" y="1443.50746269"/>
      <point x="764.014925373" y="1507.0"/>
      <point x="717" y="1507" type="qcurve" smooth="yes"/>
      <point x="669.23880597" y="1507.0"/>
      <point x="606.0" y="1443.50746269"/>
      <point x="606" y="1395" type="qcurve" smooth="yes"/>
      <point x="606.0" y="1344.25373134"/>
      <point x="667.746268657" y="1278.0"/>
    </contour>
  </outline>
</glyph>
<glyph name="hungarumlaut" format="1">
  <advance width="1024.0"/>
  <unicode hex="02DD"/>
  <outline>
    <contour>
      <point x="516" y="1522" type="line"/>
      <point x="772" y="1522" type="line"/>
      <point x="414" y="1212" type="line"/>
      <point x="276" y="1212" type="line"/>
    </contour>
    <contour>
      <point x="907" y="1522" type="line"/>
      <point x="1165" y="1522" type="line"/>
      <point x="805" y="1212" type="line"/>
      <point x="670" y="1212" type="line"/>
    </contour>
  </outline>
</glyph>
<glyph name="endash" format="1">
  <advance width="1024.0"/>
  <unicode hex="2013"/>
  <outline>
    <contour>
      <point x="106" y="674" type="line"/>
      <point x="985" y="674" type="line"/>
      <point x="938" y="489" type="line"/>
      <point x="59" y="489" type="line"/>
    </contour>
  </outline>
</glyph>
<glyph name="quoteleft" format="1">
  <advance width="430.08"/>
  <unicode hex="2018"/>
  <unicode hex="02BB"/>
  <outline>
    <contour>
      <point x="289" y="1475" type="line"/>
      <point x="524" y="1475" type="line"/>
      <point x="473" y="969" type="line"/>
      <point x="350" y="969" type="line"/>
    </contour>
  </outline>
</glyph>
<glyph name="quotesinglbase" format="1">
  <advance width="430.08"/>
  <unicode hex="201A"/>
  <outline>
    <contour>
      <point x="55" y="266" type="line"/>
      <point x="309" y="266" type="line"/>
      <point x="4" y="-240" type="line"/>
      <point x="-133" y="-240" type="line"/>
    </contour>
  </outline>
</glyph>
<glyph name="quotedblleft" format="1">
  <advance width="790.528"/>
  <unicode hex="201C"/>
  <outline>
    <contour>
      <point x="289" y="1475" type="line"/>
      <point x="520" y="1475" type="line"/>
      <point x="469" y="969" type="line"/>
      <point x="350" y="969" type="line"/>
    </contour>
    <contour>
      <point x="643" y="1475" type="line"/>
      <point x="874" y="1475" type="line"/>
      <point x="823" y="969" type="line"/>
      <point x="705" y="969" type="line"/>
    </contour>
  </outline>
</glyph>
<glyph name="quotedblright" format="1">
  <advance width="790.528"/>
  <unicode hex="201D"/>
  <outline>
    <contour>
      <point x="371" y="1475" type="line"/>
      <point x="621" y="1475" type="line"/>
      <point x="315" y="969" type="line"/>
      <point x="182" y="969" type="line"/>
    </contour>
    <contour>
      <point x="735" y="1475" type="line"/>
      <point x="985" y="1475" type="line"/>
      <point x="680" y="969" type="line"/>
      <point x="547" y="969" type="line"/>
    </contour>
  </outline>
</glyph>
<glyph name="dagger" format="1">
  <advance width="933.888"/>
  <unicode hex="2020"/>
  <outline>
    <contour>
      <point x="657" y="1047" type="line"/>
      <point x="1016" y="1102" type="line"/>
      <point x="971" y="924" type="line"/>
      <point x="641" y="977" type="line"/>
      <point x="625" y="702" type="line"/>
      <point x="373" y="0" type="line"/>
      <point x="291" y="0" type="line"/>
      <point x="389" y="702" type="line"/>
      <point x="512" y="977" type="line"/>
      <point x="154" y="924" type="line"/>
      <point x="197" y="1102" type="line"/>
      <point x="528" y="1047" type="line"/>
      <point x="582" y="1475" type="line"/>
      <point x="817" y="1475" type="line"/>
    </contour>
  </outline>
</glyph>
<glyph name="daggerdbl" format="1">
  <advance width="995.328"/>
  <unicode hex="2021"/>
  <outline>
    <contour>
      <point x="696" y="1087" type="line"/>
      <point x="1057" y="1143" type="line"/>
      <point x="1012" y="965" type="line"/>
      <point x="678" y="1018" type="line"/>
      <point x="662" y="737" type="line"/>
      <point x="539" y="457" type="line"/>
      <point x="899" y="510" type="line"/>
      <point x="854" y="332" type="line"/>
      <point x="520" y="387" type="line"/>
      <point x="481" y="0" type="line"/>
      <point x="244" y="0" type="line"/>
      <point x="399" y="387" type="line"/>
      <point x="37" y="332" type="line"/>
      <point x="82" y="510" type="line"/>
      <point x="418" y="457" type="line"/>
      <point x="432" y="737" type="line"/>
      <point x="557" y="1018" type="line"/>
      <point x="195" y="965" type="line"/>
      <point x="240" y="1143" type="line"/>
      <point x="575" y="1087" type="line"/>
      <point x="612" y="1475" type="line"/>
      <point x="850" y="1475" type="line"/>
    </contour>
  </outline>
</glyph>
<glyph name="ellipsis" format="1">
  <advance width="1333.248"/>
  <unicode hex="2026"/>
  <outline>
    <contour>
      <point x="113" y="254" type="qcurve" smooth="yes"/>
      <point x="168.970149254" y="254.0"/>
      <point x="246.0" y="177.208955224"/>
      <point x="246" y="119" type="qcurve" smooth="yes"/>
      <point x="246.0" y="62.2835820896"/>
      <point x="168.970149254" y="-14.0"/>
      <point x="113" y="-14" type="qcurve" smooth="yes"/>
      <point x="54.7910447761" y="-14.0"/>
      <point x="-23.0" y="62.2835820896"/>
      <point x="-23" y="119" type="qcurve" smooth="yes"/>
      <point x="-23.0" y="177.208955224"/>
      <point x="54.7910447761" y="254.0"/>
    </contour>
    <contour>
      <point x="567" y="254" type="qcurve" smooth="yes"/>
      <point x="623.71641791" y="254.0"/>
      <point x="700.0" y="177.208955224"/>
      <point x="700" y="119" type="qcurve" smooth="yes"/>
      <point x="700.0" y="62.2835820896"/>
      <point x="623.71641791" y="-14.0"/>
      <point x="567" y="-14" type="qcurve" smooth="yes"/>
      <point x="508.791044776" y="-14.0"/>
      <point x="432.0" y="62.2835820896"/>
      <point x="432" y="119" type="qcurve" smooth="yes"/>
      <point x="432.0" y="177.208955224"/>
      <point x="508.791044776" y="254.0"/>
    </contour>
    <contour>
      <point x="1022" y="254" type="qcurve" smooth="yes"/>
      <point x="1078.71641791" y="254.0"/>
      <point x="1155.0" y="177.208955224"/>
      <point x="1155" y="119" type="qcurve" smooth="yes"/>
      <point x="1155.0" y="62.2835820896"/>
      <point x="1078.71641791" y="-14.0"/>
      <point x="1022" y="-14" type="qcurve" smooth="yes"/>
      <point x="963.791044776" y="-14.0"/>
      <point x="887.0" y="62.2835820896"/>
      <point x="887" y="119" type="qcurve" smooth="yes"/>
      <point x="887.0" y="177.208955224"/>
      <point x="963.791044776" y="254.0"/>
    </contour>
  </outline>
</glyph>
<glyph name="perthousand" format="1">
  <advance width="2619.392"/>
  <unicode hex="2030"/>
  <outline>
    <contour>
      <point x="594" y="1489" type="qcurve" smooth="yes"/>
      <point x="717.880597015" y="1489.0"/>
      <point x="897.0" y="1335.97014925"/>
      <point x="897" y="1180" type="qcurve" smooth="yes"/>
      <point x="897.0" y="999.402985075"/>
      <point x="665.537313433" y="664.0"/>
      <point x="473" y="664" type="qcurve" smooth="yes"/>
      <point x="347.626865672" y="664.0"/>
      <point x="170.0" y="820.52238806"/>
      <point x="170" y="975" type="qcurve" smooth="yes"/>
      <point x="170.0" y="1155.59701493"/>
      <point x="401.462686567" y="1489.0"/>
    </contour>
    <contour>
      <point x="481" y="797" type="qcurve" smooth="yes"/>
      <point x="598.910447761" y="797.0"/>
      <point x="729.0" y="1059.07462687"/>
      <point x="729" y="1174" type="qcurve" smooth="yes"/>
      <point x="729.0" y="1257.58208955"/>
      <point x="651.671641791" y="1356.0"/>
      <point x="586" y="1356" type="qcurve" smooth="yes"/>
      <point x="468.089552239" y="1356.0"/>
      <point x="338.0" y="1094.43283582"/>
      <point x="338" y="981" type="qcurve" smooth="yes"/>
      <point x="338.0" y="896.671641791"/>
      <point x="413.835820896" y="797.0"/>
    </contour>
    <contour>
      <point x="1425" y="811" type="qcurve" smooth="yes"/>
      <point x="1548.88059701" y="811.0"/>
      <point x="1729.0" y="654.47761194"/>
      <point x="1729" y="500" type="qcurve" smooth="yes"/>
      <point x="1729.0" y="319.402985075"/>
      <point x="1497.02985075" y="-14.0"/>
      <point x="1303" y="-14" type="qcurve" smooth="yes"/>
      <point x="1179.11940299" y="-14.0"/>
      <point x="1001.0" y="141.029850746"/>
      <point x="1001" y="297" type="qcurve" smooth="yes"/>
      <point x="1001.0" y="477.597014925"/>
      <point x="1232.46268657" y="811.0"/>
    </contour>
    <contour>
      <point x="1311" y="119" type="qcurve" smooth="yes"/>
      <point x="1429.65671642" y="119.0"/>
      <point x="1561.0" y="380.567164179"/>
      <point x="1561" y="494" type="qcurve" smooth="yes"/>
      <point x="1561.0" y="577.582089552"/>
      <point x="1482.67164179" y="678.0"/>
      <point x="1417" y="678" type="qcurve" smooth="yes"/>
      <point x="1299.8358209" y="678.0"/>
      <point x="1169.0" y="415.925373134"/>
      <point x="1169" y="301" type="qcurve" smooth="yes"/>
      <point x="1169.0" y="216.671641791"/>
      <point x="1245.32835821" y="119.0"/>
    </contour>
    <contour>
      <point x="2245" y="811" type="qcurve" smooth="yes"/>
      <point x="2370.37313433" y="811.0"/>
      <point x="2548.0" y="654.47761194"/>
      <point x="2548" y="500" type="qcurve" smooth="yes"/>
      <point x="2548.0" y="319.402985075"/>
      <point x="2316.53731343" y="-14.0"/>
      <point x="2124" y="-14" type="qcurve" smooth="yes"/>
      <point x="2000.11940299" y="-14.0"/>
      <point x="1821.0" y="141.029850746"/>
      <point x="1821" y="297" type="qcurve" smooth="yes"/>
      <point x="1821.0" y="477.597014925"/>
      <point x="2052.46268657" y="811.0"/>
    </contour>
    <contour>
      <point x="2132" y="119" type="qcurve" smooth="yes"/>
      <point x="2249.91044776" y="119.0"/>
      <point x="2380.0" y="380.567164179"/>
      <point x="2380" y="494" type="qcurve" smooth="yes"/>
      <point x="2380.0" y="577.582089552"/>
      <point x="2303.91044776" y="678.0"/>
      <point x="2236" y="678" type="qcurve" smooth="yes"/>
      <point x="2118.8358209" y="678.0"/>
      <point x="1989.0" y="415.925373134"/>
      <point x="1989" y="301" type="qcurve" smooth="yes"/>
      <point x="1989.0" y="216.671641791"/>
      <point x="2066.32835821" y="119.0"/>
    </contour>
    <contour>
      <point x="1485" y="1475" type="line"/>
      <point x="1688" y="1475" type="line"/>
      <point x="999" y="715" type="line"/>
      <point x="414" y="0" type="line"/>
      <point x="211" y="0" type="line"/>
      <point x="899" y="760" type="line"/>
    </contour>
  </outline>
</glyph>
<glyph name="guilsinglleft" format="1">
  <advance width="565.248"/>
  <unicode hex="2039"/>
  <outline>
    <contour>
      <point x="463" y="922" type="line"/>
      <point x="600" y="922" type="line"/>
      <point x="279" y="530" type="line"/>
      <point x="403" y="152" type="line"/>
      <point x="283" y="152" type="line"/>
      <point x="47" y="537" type="line"/>
    </contour>
  </outline>
</glyph>
<glyph name="fraction" format="1">
  <advance width="788.48"/>
  <unicode hex="2044"/>
  <outline>
    <contour>
      <point x="891" y="1505" type="line"/>
      <point x="1102" y="1505" type="line"/>
      <point x="-6" y="-31" type="line"/>
      <point x="-215" y="-31" type="line"/>
    </contour>
  </outline>
</glyph>
<glyph name="uni2117" format="1">
  <advance width="1695.744"/>
  <unicode hex="2117"/>
  <outline>
    <contour>
      <point x="899" y="1499" type="qcurve" smooth="yes"/>
      <point x="1221.3880597" y="1499.0"/>
      <point x="1659.0" y="1060.88059701"/>
      <point x="1659" y="737" type="qcurve" smooth="yes"/>
      <point x="1659.0" y="414.611940299"/>
      <point x="1219.3880597" y="-25.0"/>
      <point x="897" y="-25" type="qcurve" smooth="yes"/>
      <point x="573.119402985" y="-25.0"/>
      <point x="135.0" y="413.119402985"/>
      <point x="135" y="737" type="qcurve" smooth="yes"/>
      <point x="135.0" y="1059.3880597"/>
      <point x="575.119402985" y="1499.0"/>
    </contour>
    <contour>
      <point x="899" y="47" type="qcurve" smooth="yes"/>
      <point x="1192.28358209" y="47.0"/>
      <point x="1577.0" y="442.223880597"/>
      <point x="1577" y="737" type="qcurve" smooth="yes"/>
      <point x="1577.0" y="1030.28358209"/>
      <point x="1190.28358209" y="1427.0"/>
      <point x="897" y="1427" type="qcurve" smooth="yes"/>
      <point x="602.223880597" y="1427.0"/>
      <point x="217.0" y="1032.52238806"/>
      <point x="217" y="737" type="qcurve" smooth="yes"/>
      <point x="217.0" y="443.71641791"/>
      <point x="604.223880597" y="47.0"/>
    </contour>
    <contour>
      <point x="940" y="1165" type="line" smooth="yes"/>
      <point x="1078.80597015" y="1165.0"/>
      <point x="1241.0" y="1035.3880597"/>
      <point x="1241" y="913" type="qcurve" smooth="yes"/>
      <point x="1241.0" y="786.134328358"/>
      <point x="1077.76119403" y="651.0"/>
      <point x="930" y="651" type="qcurve" smooth="yes"/>
      <point x="817" y="651" type="line"/>
      <point x="817" y="317" type="line"/>
      <point x="657" y="317" type="line"/>
      <point x="657" y="1165" type="line"/>
    </contour>
    <contour>
      <point x="928" y="770" type="line" smooth="yes"/>
      <point x="1002.62686567" y="770.0"/>
      <point x="1083.0" y="842.343283582"/>
      <point x="1083" y="911" type="qcurve" smooth="yes"/>
      <point x="1083.0" y="975.179104478"/>
      <point x="1001.6119403" y="1047.0"/>
      <point x="924" y="1047" type="qcurve" smooth="yes"/>
      <point x="813" y="1047" type="line"/>
      <point x="813" y="770" type="line"/>
    </contour>
  </outline>
</glyph>
<glyph name="trademark" format="1">
  <advance width="1597.44"/>
  <unicode hex="2122"/>
  <outline>
    <contour>
      <point x="1516" y="1475" type="line"/>
      <point x="1710" y="1475" type="line"/>
      <point x="1538" y="780" type="line"/>
      <point x="1417" y="780" type="line"/>
      <point x="1559" y="1348" type="line"/>
      <point x="1552" y="1348" type="line"/>
      <point x="1229" y="780" type="line"/>
      <point x="1100" y="780" type="line"/>
      <point x="1059" y="1348" type="line"/>
      <point x="1055" y="1348" type="line"/>
      <point x="911" y="780" type="line"/>
      <point x="795" y="780" type="line"/>
      <point x="967" y="1475" type="line"/>
      <point x="1161" y="1475" type="line"/>
      <point x="1200" y="932" type="line"/>
      <point x="1204" y="932" type="line"/>
    </contour>
    <contour>
      <point x="299" y="1475" type="line"/>
      <point x="848" y="1475" type="line"/>
      <point x="819" y="1368" type="line"/>
      <point x="612" y="1368" type="line"/>
      <point x="465" y="780" type="line"/>
      <point x="336" y="780" type="line"/>
      <point x="481" y="1368" type="line"/>
      <point x="272" y="1368" type="line"/>
    </contour>
  </outline>
</glyph>
<glyph name="radical" format="1">
  <advance width="1191.936"/>
  <unicode hex="221A"/>
  <outline>
    <contour>
      <point x="1108" y="1475" type="line"/>
      <point x="1358" y="1475" type="line"/>
      <point x="520" y="-6" type="line"/>
      <point x="283" y="-6" type="line"/>
      <point x="113" y="696" type="line"/>
      <point x="334" y="696" type="line"/>
      <point x="436" y="180" type="line"/>
    </contour>
  </outline>
</glyph>
<glyph name="fi" format="1">
  <advance width="1220.608"/>
  <unicode hex="FB01"/>
  <outline>
    <contour>
      <point x="778" y="1554" type="qcurve" smooth="yes"/>
      <point x="840.686567164" y="1554.0"/>
      <point x="945.447761194" y="1534.92537313"/>
      <point x="985" y="1520" type="qcurve"/>
      <point x="946" y="1366" type="line"/>
      <point x="916.895522388" y="1379.43283582"/>
      <point x="845.507462687" y="1403.0"/>
      <point x="797" y="1403" type="qcurve" smooth="yes"/>
      <point x="731.328358209" y="1403.0"/>
      <point x="643.388059701" y="1327.80597015"/>
      <point x="621" y="1239" type="qcurve" smooth="yes"/>
      <point x="578" y="1067" type="line"/>
      <point x="840" y="1067" type="line"/>
      <point x="801" y="915" type="line"/>
      <point x="541" y="915" type="line"/>
      <point x="219" y="-385" type="line"/>
      <point x="2" y="-385" type="line"/>
      <point x="326" y="915" type="line"/>
      <point x="123" y="915" type="line"/>
      <point x="160" y="1067" type="line"/>
      <point x="362" y="1067" type="line"/>
      <point x="412" y="1262" type="line" smooth="yes"/>
      <point x="451.552238806" y="1419.46268657"/>
      <point x="626.507462687" y="1554.0"/>
    </contour>
    <contour>
      <point x="997" y="1073" type="line"/>
      <point x="1217" y="1073" type="line"/>
      <point x="948" y="0" type="line"/>
      <point x="729" y="0" type="line"/>
    </contour>
    <contour>
      <point x="1085" y="1483" type="line"/>
      <point x="1333" y="1483" type="line"/>
      <point x="1282" y="1278" type="line"/>
      <point x="1034" y="1278" type="line"/>
    </contour>
  </outline>
</glyph>
<glyph name="bullet" format="1">
  <advance width="804.864"/>
  <outline>
    <contour>
      <point x="459" y="1067" type="qcurve" smooth="yes"/>
      <point x="585.865671642" y="1067.0"/>
      <point x="762.0" y="890.865671642"/>
      <point x="762" y="764" type="qcurve" smooth="yes"/>
      <point x="762.0" y="637.134328358"/>
      <point x="585.865671642" y="461.0"/>
      <point x="459" y="461" type="qcurve" smooth="yes"/>
      <point x="332.134328358" y="461.0"/>
      <point x="156.0" y="637.134328358"/>
      <point x="156" y="764" type="qcurve" smooth="yes"/>
      <point x="156.0" y="890.865671642"/>
      <point x="332.134328358" y="1067.0"/>
    </contour>
  </outline>
</glyph>
<glyph name="endash.uc" format="1">
  <advance width="1228.8"/>
  <outline>
    <contour>
      <point x="1192" y="825" type="line"/>
      <point x="1192" y="629" type="line"/>
      <point x="133" y="629" type="line"/>
      <point x="133" y="825" type="line"/>
    </contour>
  </outline>
</glyph>
